<svg width="143" height="35" viewBox="0 0 143 35" fill="none" xmlns="http://www.w3.org/2000/svg">
<g clip-path="url(#clip0)">
<path d="M30.5074 18.5624C30.5179 21.0045 30.5239 23.4451 30.545 25.8873C30.548 26.2077 30.4173 26.3754 30.15 26.5296C25.322 29.3012 20.4969 32.0802 15.6749 34.8622C15.4196 35.0105 15.2049 35.0659 14.918 34.8967C12.8126 33.6554 10.6952 32.4306 8.58228 31.2013C8.59429 30.8943 8.84808 30.8045 9.05832 30.6802C10.8619 29.6111 12.706 28.6094 14.5036 27.5298C14.7183 27.4011 14.9376 27.2783 15.2004 27.2843C18.0551 25.6567 20.9114 24.0306 23.7662 22.403C23.8338 22.3206 23.8788 22.2203 23.9629 22.1485C25.798 21.006 27.7097 19.9953 29.5688 18.8933C29.8467 18.7286 30.1125 18.4351 30.5074 18.5624Z" fill="white"/>
<path d="M0.0435921 16.4149C0.0315783 13.9758 0.0240697 11.5351 4.21535e-05 9.09449C-0.00296129 8.76507 0.15472 8.61085 0.413016 8.46262C5.23805 5.69106 10.0616 2.91352 14.8821 0.134486C15.1104 0.00272079 15.3041 -0.0676535 15.5699 0.0895657C17.6963 1.34283 19.8303 2.58112 21.9627 3.8239C21.8922 4.16379 21.5933 4.28358 21.341 4.42283C19.623 5.38112 17.9321 6.38732 16.2247 7.36507C15.9438 7.52529 15.657 7.67802 15.3296 7.72593C12.8233 9.14989 10.3154 10.5723 7.8105 12.0008C7.44558 12.2089 7.09868 12.4485 6.74278 12.6746C5.72311 13.4772 4.54576 14.0222 3.43899 14.6795C2.54096 15.2126 1.64893 15.7561 0.726876 16.2472C0.515133 16.361 0.319909 16.5557 0.0435921 16.4149Z" fill="white"/>
<path d="M0.0435576 16.4152C2.07389 15.2548 4.10572 14.0958 6.13454 12.9324C6.32827 12.8216 6.50547 12.6764 6.74424 12.6749C6.75175 15.6875 6.77278 18.6986 6.75626 21.7112C6.75325 22.2218 6.90493 22.5078 7.35845 22.7638C9.98346 24.2507 12.5889 25.772 15.2019 27.2828C13.2032 28.4537 11.2044 29.6246 9.20857 30.7985C8.99532 30.9243 8.79259 31.0665 8.58385 31.1998C5.8342 29.6306 3.08755 28.0584 0.334892 26.4982C0.0795989 26.3529 7.60378e-06 26.1718 0.00301105 25.8963C0.0180283 22.7369 0.0300421 19.576 0.0435576 16.4152Z" fill="white"/>
<path d="M23.9164 22.2727C23.8669 22.3162 23.8158 22.3596 23.7662 22.403C23.7497 20.8877 23.7497 20.8877 22.2465 20.8877C20.1486 20.8877 18.0507 20.8712 15.9528 20.8997C15.4152 20.9072 15.2094 20.7934 15.2214 20.2064C15.2605 18.4141 15.25 16.6203 15.2259 14.828C15.2199 14.3369 15.3176 14.1303 15.8747 14.1318C20.5706 14.1527 25.265 14.1497 29.9608 14.1348C30.4249 14.1333 30.572 14.268 30.5465 14.7262C30.5045 15.4958 30.5165 16.2685 30.506 17.0381C30.105 17.622 29.4443 17.8496 28.8721 18.1835C27.516 18.9756 26.151 19.7542 24.7859 20.5328C24.3249 20.7964 24.0426 21.0898 24.0921 21.6424C24.1116 21.8655 24.0861 22.0931 23.9164 22.2727Z" fill="white"/>
<path d="M15.3296 7.72621C17.1767 6.64364 19.0253 5.56107 20.8724 4.47701C21.2374 4.26289 21.5993 4.04129 21.9627 3.82268C24.7184 5.39038 27.471 6.96107 30.2297 8.52278C30.4519 8.64856 30.545 8.80129 30.542 9.05733C30.5315 10.08 30.527 11.1027 30.5435 12.1239C30.5495 12.4727 30.4384 12.6045 30.075 12.603C28.0747 12.591 26.0744 12.597 24.0726 12.597C23.8414 12.597 23.6371 12.5326 23.4344 12.4158C20.7358 10.8511 18.0327 9.28941 15.3296 7.72621Z" fill="white"/>
<path d="M23.8083 22.403C23.8068 22.3521 23.8113 22.2997 23.8038 22.2503C23.6596 21.3264 23.933 20.7529 24.855 20.2843C26.7892 19.302 28.6288 18.1326 30.5075 17.0396C30.5075 17.5606 30.5075 18.0802 30.509 18.6013C28.4156 19.8201 26.3237 21.0389 24.2288 22.2533C24.1011 22.3251 23.948 22.3536 23.8083 22.403Z" fill="white"/>
<path d="M51.1606 20.8652C51.1606 21.8625 51.1426 22.8597 51.1681 23.8569C51.1786 24.2806 51.0405 24.4364 50.6125 24.4079C50.1394 24.3765 49.6634 24.4049 49.1873 24.3974C49.0236 24.3944 48.7518 24.4528 48.7413 24.2432C48.6978 23.3942 48.2728 23.8928 47.992 24.0261C43.1459 26.3454 37.7097 22.7309 37.9529 17.3465C38.1602 12.7812 41.9565 9.7431 46.6599 10.3585C48.2367 10.5651 49.6559 11.0877 50.8738 12.1373C51.3183 12.5191 51.479 12.8366 50.8978 13.2079C50.8557 13.2349 50.8242 13.2753 50.7882 13.3097C50.3632 13.696 49.9983 14.2381 49.4982 14.4267C48.911 14.6483 48.5972 13.8967 48.1121 13.6436C46.3341 12.7138 43.9328 12.9399 42.5677 14.2321C41.2192 15.5093 40.8197 17.944 41.6652 19.7183C42.6984 21.8879 45.9181 22.677 47.8658 21.2515C48.1466 21.0464 48.2202 20.8113 48.2157 20.4894C48.2022 19.5925 48.2277 18.6941 48.2037 17.7972C48.1932 17.3884 48.3028 17.1983 48.7458 17.2312C49.5147 17.2866 50.4908 16.9288 50.9984 17.369C51.488 17.7927 51.114 18.781 51.1546 19.5191C51.1816 19.9668 51.1606 20.416 51.1606 20.8652Z" fill="white"/>
<path d="M88.1391 17.8152C89.4245 16.6068 90.7235 15.4105 91.988 14.1812C92.3229 13.8563 92.6563 13.7275 93.1143 13.7425C94.0544 13.7724 94.9959 13.7514 96.0562 13.7514C95.517 14.5585 94.8443 15.0736 94.2781 15.68C93.5978 16.4107 92.8995 17.1279 92.1697 17.8077C91.7943 18.1566 91.7928 18.3797 92.1171 18.778C93.5783 20.5793 95.0004 22.4105 96.5562 24.384C95.2392 24.384 94.0634 24.3944 92.889 24.375C92.6457 24.3705 92.5511 24.0995 92.413 23.9288C91.53 22.8447 90.6409 21.7651 89.7804 20.6646C89.5161 20.3262 89.3705 20.3322 89.0326 20.6092C88.2217 21.2725 87.8462 22.0317 87.9333 23.1157C88.0354 24.3929 87.9574 24.3989 86.6419 24.3989C86.2424 24.3989 85.8384 24.3705 85.442 24.4064C84.9764 24.4468 84.8443 24.2747 84.8488 23.815C84.8713 21.7696 84.8578 19.7258 84.8578 17.6804C84.8578 15.2368 84.8698 12.7917 84.8473 10.348C84.8428 9.86738 84.9629 9.67422 85.4705 9.70716C86.0937 9.74759 86.7229 9.75358 87.3447 9.70567C87.8763 9.66524 87.9664 9.89583 87.9634 10.354C87.9468 12.573 87.9559 14.7936 87.9559 17.0126C87.9559 17.2567 87.9559 17.4992 87.9559 17.7433C88.0174 17.7688 88.0775 17.7912 88.1391 17.8152Z" fill="white"/>
<path d="M61.1577 24.5517C58.818 24.5052 56.7862 23.8 55.6749 21.5855C54.6807 19.6075 54.8129 17.5891 56.1449 15.7923C57.546 13.9027 59.5538 13.3367 61.8064 13.6751C64.3623 14.0584 66.0458 15.8821 66.2951 18.2883C66.3581 18.9052 66.1344 19.043 65.6058 19.1388C63.4673 19.5236 61.3349 19.9414 59.2039 20.3651C58.9817 20.4086 58.6348 20.3352 58.5702 20.6272C58.5161 20.8757 58.7684 21.0659 58.9396 21.2426C59.9233 22.2652 62.1398 22.3671 63.4568 21.3983C63.8442 21.1138 64.068 21.0854 64.3503 21.4762C64.5245 21.7172 64.7543 21.9164 64.9585 22.1365C65.6779 22.9076 65.6809 22.9316 64.7858 23.5604C63.7001 24.3241 62.4672 24.5711 61.1577 24.5517ZM60.566 15.966C59.4337 15.9615 58.4185 16.8135 58.1873 18.1401C58.1152 18.5489 58.1662 18.76 58.6603 18.6567C60.0509 18.3677 61.4415 18.0817 62.8396 17.8317C63.3021 17.7493 63.2901 17.5606 63.1009 17.2387C62.5873 16.3658 61.8169 15.954 60.566 15.966Z" fill="white"/>
<path d="M75.6493 24.5427C74.2347 24.5786 72.9132 24.2552 71.7508 23.4361C69.8917 22.1245 69.1273 19.8111 69.7595 17.5172C70.3542 15.3611 72.314 13.7979 74.6536 13.6122C77.8959 13.3561 80.3301 15.1724 80.7701 18.1491C80.8572 18.739 80.7656 19.034 80.0824 19.1493C77.9394 19.5102 75.8085 19.9459 73.6775 20.3711C73.4583 20.4145 73.1054 20.3337 73.0468 20.6317C72.9988 20.8772 73.251 21.0674 73.4237 21.2456C74.3923 22.2428 76.6119 22.3865 77.8778 21.4372C78.3914 21.0524 78.6317 21.1767 78.9411 21.5929C79.0897 21.7921 79.2759 21.9628 79.4456 22.1454C80.1529 22.9046 80.1529 22.9046 79.3345 23.517C78.3959 24.2177 77.2276 24.5427 75.6493 24.5427ZM72.9687 18.6851C74.4809 18.3857 75.9977 18.1027 77.5039 17.7733C77.9274 17.6804 77.6436 17.3765 77.549 17.1923C77.0534 16.225 75.7844 15.7354 74.5726 16.0244C73.5244 16.2744 72.7014 17.2866 72.6594 18.3377C72.6489 18.5953 72.6819 18.7271 72.9687 18.6851Z" fill="white"/>
<path d="M127.273 24.5412C124.206 24.5382 122.06 23.1531 121.311 20.7649C120.369 17.7658 121.98 14.7232 124.984 13.8338C128.126 12.9025 131.309 14.4761 132.098 17.351C132.533 18.9382 132.518 18.9576 130.91 19.2661C128.971 19.6374 127.031 20.0058 125.094 20.3861C124.422 20.5179 124.391 20.6376 124.843 21.1647C125.747 22.2203 128.023 22.415 129.349 21.4582C129.872 21.0809 130.15 21.1452 130.47 21.6169C130.567 21.7591 130.701 21.8774 130.82 22.0062C131.67 22.9256 131.667 23.0154 130.599 23.6862C129.549 24.345 128.385 24.5861 127.273 24.5412ZM124.581 18.6612C125.864 18.4111 127.25 18.1146 128.647 17.8781C129.307 17.7658 129.259 17.4903 128.977 17.0456C128.418 16.1666 127.127 15.7279 125.989 16.0453C124.999 16.3224 124.176 17.3645 124.14 18.3497C124.131 18.6192 124.211 18.7196 124.581 18.6612Z" fill="white"/>
<path d="M103.18 24.5397C101.697 24.5741 100.342 24.2717 99.0387 23.7132C98.6557 23.5485 98.4785 23.3628 98.7188 22.9301C98.9981 22.43 99.0897 21.7292 99.4952 21.4238C99.9592 21.0749 100.491 21.7082 101.015 21.849C102.018 22.117 103.023 22.2742 104.053 22.135C104.572 22.0646 105.158 21.9748 105.17 21.271C105.182 20.6227 104.615 20.5733 104.166 20.4774C103.165 20.2618 102.149 20.1181 101.153 19.883C99.6889 19.5371 98.9561 18.7405 98.8014 17.4304C98.6422 16.0888 99.2279 14.9209 100.504 14.301C102.794 13.1915 105.109 13.4355 107.412 14.3055C107.746 14.4312 107.827 14.6319 107.653 14.9373C107.64 14.9583 107.63 14.9823 107.619 15.0047C107.37 15.5198 107.241 16.1876 106.837 16.5095C106.39 16.8659 105.865 16.2415 105.344 16.1412C104.451 15.9705 103.565 15.8642 102.67 16.0723C102.215 16.1786 101.782 16.3823 101.781 16.9348C101.779 17.4753 102.221 17.6146 102.647 17.7074C103.721 17.9395 104.807 18.1177 105.871 18.3842C107.277 18.7376 108.058 19.5746 108.162 20.7275C108.291 22.1814 107.699 23.252 106.399 23.8973C105.364 24.4109 104.262 24.5771 103.18 24.5397Z" fill="white"/>
<path d="M111.976 16.6143C111.976 15.0691 111.988 13.5238 111.968 11.9801C111.962 11.5339 112.092 11.3512 112.563 11.3752C113.236 11.4096 113.913 11.4021 114.586 11.3782C114.984 11.3647 115.115 11.5189 115.098 11.9007C115.076 12.3979 115.122 12.8995 115.085 13.3951C115.045 13.9057 115.262 14.0479 115.738 14.0165C116.235 13.985 116.738 14.0269 117.237 14.0045C117.631 13.9865 117.735 14.1467 117.753 14.5271C117.837 16.3957 117.848 16.4331 115.974 16.3807C115.235 16.3598 115.035 16.5814 115.079 17.2956C115.142 18.3377 115.085 19.3874 115.098 20.434C115.116 21.855 115.862 22.4165 117.187 21.9223C117.674 21.7412 117.795 21.8759 117.911 22.2727C117.987 22.5348 118.1 22.7863 118.196 23.0423C118.551 23.9812 118.523 24.053 117.571 24.336C116.618 24.619 115.643 24.634 114.681 24.4214C113.086 24.068 112.132 23.0214 112.057 21.3953C111.982 19.8051 112.041 18.209 112.041 16.6143C112.015 16.6143 111.995 16.6143 111.976 16.6143Z" fill="white"/>
<path d="M139.4 14.9748C140.288 14.0734 141.276 13.717 142.378 13.6032C142.818 13.5583 143.027 13.6616 142.998 14.1527C142.962 14.7502 142.97 15.3506 142.997 15.948C143.015 16.3553 142.851 16.4317 142.47 16.4391C140.334 16.4856 139.483 17.36 139.471 19.4817C139.463 20.7799 139.472 22.0766 139.468 23.3747C139.463 24.6011 139.528 24.3765 138.408 24.3944C137.882 24.4034 137.356 24.381 136.831 24.4004C136.472 24.4139 136.353 24.2731 136.355 23.9213C136.362 20.702 136.364 17.4828 136.353 14.2635C136.352 13.8817 136.467 13.723 136.867 13.741C137.417 13.7664 137.972 13.7934 138.517 13.735C139.187 13.6631 139.448 13.9012 139.343 14.5615C139.327 14.6543 139.366 14.7546 139.4 14.9748Z" fill="white"/>
</g>
<defs>
<clipPath id="clip0">
<rect width="143" height="35" fill="white"/>
</clipPath>
</defs>
</svg>
