<svg width="96" height="33" viewBox="0 0 96 33" fill="none" xmlns="http://www.w3.org/2000/svg">
<path fill-rule="evenodd" clip-rule="evenodd" d="M56.8934 24.5287H54.349L53.3554 20.9554H48.6642L47.6706 24.5287H45.2058L49.5388 8.72461H52.3216L56.8934 24.5287ZM52.6395 18.374L50.9703 12.4182L49.4194 18.374H52.6395ZM66.0366 24.5287H63.8897V22.901C63.532 23.6157 63.0549 24.0928 62.6175 24.2911C62.1807 24.5292 61.7031 24.808 61.2259 24.808C60.3513 24.808 59.4771 24.2116 58.8407 23.2191C58.1253 22.3062 57.8074 20.7183 57.8074 18.8517C57.8074 16.9462 58.1258 15.2773 58.7218 14.2849C59.3577 13.3322 60.2722 12.7368 61.3459 12.7368C62.1807 12.7368 63.0554 13.3322 63.8101 14.4042V8.72512H66.0366V24.5287ZM59.994 18.5733C59.994 19.7641 60.1533 20.8361 60.3518 21.3132C60.71 22.0278 61.2264 22.504 61.823 22.504C62.3792 22.504 62.8166 22.1466 63.1743 21.7103C63.532 21.1139 63.8101 20.1214 63.8101 18.9307C63.8101 17.6594 63.6116 16.5879 63.2539 15.9915C62.9355 15.3961 62.3792 14.999 61.823 14.999C61.3459 14.999 60.9085 15.3961 60.511 15.8732C60.1528 16.4686 59.994 17.3816 59.994 18.5733ZM67.865 18.5733C67.865 17.6594 67.9839 16.6669 68.3422 15.754C68.7397 14.8012 69.2567 14.0866 69.8925 13.6095C70.5681 13.0936 71.403 12.7363 72.1986 12.7363C73.431 12.7363 74.5838 13.3317 75.339 14.4036C76.1739 15.5944 76.6112 17.1833 76.6112 18.8511C76.6112 20.519 76.1739 22.0279 75.339 23.1004C74.4644 24.2116 73.431 24.808 72.1986 24.808C71.4433 24.808 70.6881 24.5292 69.9726 24.0933C69.2572 23.6162 68.7402 22.9015 68.3427 22.0284C67.985 21.1144 67.8656 19.9236 67.8656 18.7319V18.5733H67.865ZM70.091 18.8511C70.091 20.0429 70.2104 20.9559 70.5681 21.5512C70.9657 22.1466 71.5622 22.504 72.119 22.504C72.6354 22.504 73.232 22.1466 73.5897 21.5512C73.9872 20.9559 74.2255 20.0429 74.2255 18.8511C74.2255 17.6594 73.9872 16.6669 73.5897 16.0715C73.232 15.3966 72.6354 14.999 72.119 14.999C71.5622 14.999 71.006 15.3961 70.6876 15.9915C70.3298 16.6664 70.091 17.6594 70.091 18.8511ZM78.3601 24.5287V8.72461H80.5855V14.4036C81.2224 13.3311 82.1363 12.7363 83.0105 12.7363C84.0439 12.7363 84.9191 13.3317 85.5947 14.2844C86.2703 15.2768 86.6684 16.7862 86.6684 18.7319C86.6684 20.6383 86.2709 22.3062 85.5947 23.2191C84.8792 24.2116 84.0051 24.808 83.1299 24.808C82.6533 24.808 82.1363 24.5292 81.6985 24.2911C81.2219 24.0928 80.7845 23.4974 80.5452 22.901V24.5287H78.3601ZM80.5855 18.5733C80.5855 19.7641 80.785 20.8361 80.983 21.3132C81.3408 22.0278 81.9378 22.504 82.5737 22.504C83.1299 22.504 83.5672 22.1466 83.8852 21.7103C84.2429 21.2332 84.4414 20.1214 84.4414 18.9307C84.4414 17.6594 84.2429 16.5879 83.8852 15.9915C83.5672 15.3961 83.01 14.999 82.4537 14.999C81.9373 14.999 81.5 15.3961 81.1423 15.8732C80.785 16.4686 80.5855 17.3816 80.5855 18.5733ZM93.4259 20.9559L95.6524 21.3132C95.413 22.5039 94.8568 23.4974 94.3011 23.9338C93.6652 24.4109 92.79 24.808 91.8761 24.808C90.5248 24.808 89.3317 24.0933 88.6555 22.9015C88.0993 21.9091 87.86 20.519 87.86 18.9312C87.86 17.0645 88.1779 15.4767 88.8933 14.4042C89.6088 13.3317 90.6427 12.7368 91.7557 12.7368C92.9875 12.7368 93.9821 13.3322 94.6583 14.4042C95.413 15.5949 95.8504 17.3821 95.8504 19.6458H90.0875C90.0875 20.6383 90.2069 21.3132 90.6049 21.8291C90.9616 22.3062 91.3995 22.504 91.8766 22.504C92.2741 22.504 92.6319 22.4254 92.7906 22.1466C92.9886 21.9086 93.2279 21.4325 93.4259 20.9559ZM93.6254 17.7786C93.6254 16.9452 93.3075 16.1908 93.0682 15.7534C92.7502 15.2763 92.2736 14.999 91.8363 14.999C91.3188 14.999 90.8427 15.3961 90.6044 15.8732C90.2069 16.3493 90.0869 17.064 90.0869 17.7786H93.6254Z" fill="black"/>
<path fill-rule="evenodd" clip-rule="evenodd" d="M0.0703125 0H13.5841L0.0703125 32.0342V0ZM22.7902 0H36.4728V31.6226L22.7902 0ZM18.342 12.2489L25.8029 31.4587H21.1856L18.0041 25.3755H12.9364L18.342 12.2489Z" fill="#CC2229"/>
</svg>
