<svg width="91" height="28" viewBox="0 0 91 28" fill="none" xmlns="http://www.w3.org/2000/svg">
<path d="M19.9545 6.50482V15.2691C19.9545 15.4112 19.8986 15.5474 19.799 15.6479C19.6995 15.7483 19.5645 15.8048 19.4237 15.8048H16.6823C16.5416 15.8047 16.4066 15.7483 16.3071 15.6478C16.2076 15.5474 16.1516 15.4112 16.1516 15.2691V1.01356C16.1516 0.871494 16.2075 0.735246 16.307 0.634789C16.4066 0.534333 16.5416 0.477897 16.6823 0.477897H19.2192C19.3599 0.477897 19.495 0.534333 19.5945 0.634789C19.694 0.735246 19.75 0.871494 19.75 1.01356V3.02112C19.75 3.02112 20.6568 0.157397 23.3481 0.157397C23.3481 0.157397 26.0102 -0.167355 27.0925 2.81446C27.0925 2.81446 27.9994 0.157397 30.7492 0.157397C30.7492 0.157397 34.8386 -0.087998 34.8386 4.18243L34.8697 6.53434V15.2986C34.8697 15.4407 34.8138 15.5769 34.7143 15.6774C34.6147 15.7779 34.4797 15.8343 34.339 15.8343H31.5973C31.4566 15.8342 31.3216 15.7778 31.2221 15.6773C31.1226 15.5769 31.0666 15.4407 31.0666 15.2986L31.0415 5.73723C31.1194 3.57213 29.3839 3.72967 29.3839 3.72967C27.1997 3.76911 27.4099 6.53434 27.4099 6.53434V15.2986C27.4099 15.4407 27.354 15.5769 27.2544 15.6774C27.1549 15.7779 27.0199 15.8343 26.8791 15.8343H24.1377C23.997 15.8342 23.862 15.7778 23.7625 15.6773C23.663 15.5769 23.607 15.4407 23.6069 15.2986V5.95357C23.6069 5.95357 23.7673 3.70983 21.8169 3.70983C21.8171 3.70983 19.8864 3.45404 19.9545 6.50482ZM90.6201 6.47861V15.2427C90.62 15.3847 90.5641 15.5209 90.4646 15.6214C90.365 15.7218 90.2301 15.7783 90.0893 15.7783L87.2382 15.8341C87.0974 15.834 86.9624 15.7775 86.8629 15.6771C86.7634 15.5767 86.7075 15.4404 86.7074 15.2984V5.95357C86.7074 5.95357 86.8677 3.70983 84.9176 3.70983C84.9176 3.70983 83.0549 3.61725 83.0549 7.1352V15.2689C83.0549 15.4109 82.9989 15.5471 82.8994 15.6476C82.7999 15.748 82.6649 15.8045 82.5242 15.8045H79.7825C79.6418 15.8045 79.5068 15.748 79.4073 15.6476C79.3078 15.5471 79.2518 15.4109 79.2518 15.2689V1.01356C79.2518 0.871513 79.3078 0.735301 79.4073 0.634859C79.5068 0.534416 79.6418 0.47796 79.7825 0.477897H82.3194C82.4602 0.477897 82.5952 0.534333 82.6947 0.634789C82.7942 0.735246 82.8502 0.871494 82.8502 1.01356V3.02112C82.8502 3.02112 83.757 0.157397 86.4483 0.157397C86.4483 0.157397 89.3313 -0.28403 90.3023 2.75896C90.3025 2.75872 90.6201 3.38649 90.6201 6.47861ZM70.8261 0.0983507C67.3204 0.0983507 64.4781 3.08016 64.4781 8.09906C64.4781 12.5178 66.6721 16.0998 70.8261 16.0998C74.746 16.0998 77.1741 12.5178 77.1741 8.09906C77.1741 3.16873 74.332 0.0983507 70.8261 0.0983507ZM73.0388 8.2762C73.0388 10.1657 72.8048 11.1694 72.8048 11.1694C72.4718 13.1668 71.0351 13.1697 70.8233 13.159C70.5946 13.1683 69.1458 13.1475 68.846 11.1694C68.846 11.1694 68.612 10.1657 68.612 8.2762V7.96136C68.612 6.0719 68.846 5.06812 68.846 5.06812C69.1458 3.09008 70.5949 3.0693 70.8233 3.07828C71.0351 3.06765 72.4718 3.07024 72.8048 5.06812C72.8048 5.06812 73.0388 6.0719 73.0388 7.96136V8.2762ZM62.887 3.00128V0.955932C62.8869 0.813884 62.831 0.677673 62.7314 0.57723C62.6319 0.476787 62.4969 0.420331 62.3562 0.420269H53.2947C53.1539 0.420269 53.0189 0.476704 52.9194 0.577161C52.8198 0.677617 52.7639 0.813865 52.7639 0.955932V2.98546C52.764 3.1275 52.8199 3.26371 52.9194 3.36416C53.0189 3.4646 53.1539 3.52106 53.2947 3.52112H58.0213L52.4267 11.712C52.4267 11.712 52.2062 12.044 52.2135 12.4108V14.9023C52.2135 14.9023 52.177 15.7566 53.1369 15.2608C53.1369 15.2608 54.8421 14.2212 57.7012 14.2212C57.7012 14.2212 60.5247 14.1857 62.4072 15.3504C62.4072 15.3504 63.1886 15.7089 63.1886 14.9205V12.7519C63.1886 12.7519 63.2595 12.1779 62.5137 11.8197C62.5137 11.8197 60.3471 10.6189 57.5057 10.8159L62.887 3.00128ZM14.0357 13.2554L13.1775 11.937C12.9044 11.4448 12.9241 10.8936 12.9241 10.8936V4.8121C13.0411 -0.442981 7.26836 0.00978199 7.26836 0.00978199C2.13662 0.00978199 1.37861 4.04025 1.37861 4.04025C1.16471 4.85059 1.78675 4.8702 1.78675 4.8702L4.29435 5.12693C4.29435 5.12693 4.72191 5.22565 4.87754 4.71195C4.87754 4.71195 5.20775 2.95357 7.05446 2.95357C9.06382 2.95357 9.04299 4.694 9.04299 4.694V6.15102C5.03177 6.28635 3.17289 7.41011 3.17289 7.41011C0.696184 8.82721 0.852046 11.6418 0.852046 11.6418C0.852046 16.2275 5.18154 16.0306 5.18154 16.0306C7.95078 16.0306 9.58897 13.9838 9.58897 13.9838C10.0765 14.8501 10.9737 15.6763 10.9737 15.6763C11.4226 16.1676 11.8904 15.7552 11.8904 15.7552L13.9187 14.0036C14.3671 13.6687 14.0357 13.2554 14.0357 13.2554ZM6.53305 13.1987C5.23045 13.1987 4.74625 11.8924 4.96249 10.6085C5.17897 9.32461 6.30323 8.31564 9.04322 8.34516V9.12575C9.14034 12.5358 7.6173 13.1987 6.53305 13.1987ZM50.4657 13.2554L49.6078 11.937C49.3347 11.4448 49.3541 10.8936 49.3541 10.8936V4.8121C49.4711 -0.442981 43.6984 0.00978199 43.6984 0.00978199C38.5667 0.00978199 37.8086 4.04025 37.8086 4.04025C37.5947 4.85059 38.2168 4.8702 38.2168 4.8702L40.7244 5.12693C40.7244 5.12693 41.1519 5.22565 41.3076 4.71195C41.3076 4.71195 41.6378 2.95357 43.4845 2.95357C45.4938 2.95357 45.473 4.694 45.473 4.694V6.15102C41.462 6.28635 39.6029 7.41011 39.6029 7.41011C37.1262 8.82721 37.2821 11.6418 37.2821 11.6418C37.2821 16.2275 41.6116 16.0306 41.6116 16.0306C44.3808 16.0306 46.019 13.9838 46.019 13.9838C46.5067 14.8501 47.4035 15.6763 47.4035 15.6763C47.8524 16.1676 48.3204 15.7552 48.3204 15.7552L50.3485 14.0036C50.7971 13.6687 50.4657 13.2554 50.4657 13.2554ZM42.9631 13.1987C41.6605 13.1987 41.1763 11.8924 41.3925 10.6085C41.609 9.32461 42.7333 8.31564 45.473 8.34516V9.12575C45.5704 12.5358 44.0476 13.1987 42.9631 13.1987Z" fill="black"/>
<path d="M57.3691 24.7646C57.3691 24.7646 57.1398 25.1673 57.4216 25.2573C57.4216 25.2573 57.7398 25.3827 58.1368 25.011C58.1368 25.011 61.0314 22.459 61.1012 17.8128C61.1012 17.8128 61.1225 17.2325 60.8917 17.0738C60.8917 17.0738 59.9849 16.2642 56.7239 16.5105C56.7239 16.5105 53.8814 16.7042 52.3296 18.0946C52.3296 18.0946 52.1901 18.2176 52.1901 18.3759C52.1901 18.3759 52.1567 18.7176 53.0097 18.5696C53.0097 18.5696 55.8519 18.1645 57.5435 18.3759C57.5435 18.3759 58.4157 18.4815 58.6598 18.7809C58.6598 18.7809 59.0609 19.1154 58.8515 20.2238C58.8515 20.2243 58.2758 23.04 57.3691 24.7646Z" fill="#F3971B"/>
<path d="M56.7947 20.3101C56.7947 20.3101 57.2192 20.8652 56.5342 21.3439C56.5342 21.3439 49.2169 27.2509 36.9304 27.2509C36.9304 27.2509 24.2832 27.8805 13.7227 18.197C13.7227 18.197 13.3525 17.8689 13.5823 17.564C13.5823 17.564 13.7878 17.2834 14.3197 17.5886C14.3197 17.5886 24.2539 23.8359 37.3009 23.8359C37.3009 23.8359 46.3695 24.1901 55.672 20.175C55.672 20.175 56.4132 19.7875 56.7947 20.3101Z" fill="#F3971B"/>
</svg>
