<svg width="40" height="40" viewBox="0 0 40 40" fill="none" xmlns="http://www.w3.org/2000/svg">
<g clip-path="url(#clip0)">
<path d="M39.2188 5.02344H23.4943C22.0524 5.02344 20.7748 5.74101 20 6.83773C19.2253 5.74094 17.9477 5.02344 16.5057 5.02344H0.781248C0.349765 5.02344 0 5.3732 0 5.80469V34.1961C0 34.6276 0.349765 34.9774 0.781248 34.9774H39.2188C39.6502 34.9774 40 34.6276 40 34.1961V5.80469C40 5.3732 39.6502 5.02344 39.2188 5.02344ZM23.4943 6.58593H38.4376V29.4837H23.4943C22.4653 29.4837 21.5199 29.8492 20.7813 30.4571V9.29906C20.7812 7.80304 21.9983 6.58593 23.4943 6.58593ZM16.5057 6.58593C18.0016 6.58593 19.2187 7.80304 19.2187 9.29906V30.4572C18.4801 29.8493 17.5347 29.4838 16.5057 29.4838H1.5625V6.58593H16.5057ZM1.5625 31.0462H16.5057C17.885 31.0462 19.0271 32.0809 19.1969 33.4149H1.5625V31.0462ZM20.803 33.4149C20.9728 32.0809 22.115 31.0462 23.4942 31.0462H38.4375V33.4149H20.803Z" fill="#22ADCF"/>
<path d="M14.3896 10.0801H16.506C17.5415 10.0416 17.5407 8.55562 16.506 8.51758H14.3896C13.3541 8.55594 13.3549 10.042 14.3896 10.0801Z" fill="#22ADCF"/>
<path d="M14.3896 13.5742H16.506C17.5415 13.5358 17.5407 12.0498 16.506 12.0117H14.3896C13.3541 12.0502 13.3549 13.5362 14.3896 13.5742Z" fill="#22ADCF"/>
<path d="M14.3896 17.0684H16.506C17.5415 17.0299 17.5407 15.5439 16.506 15.5059H14.3896C13.3541 15.5442 13.3549 17.0303 14.3896 17.0684Z" fill="#22ADCF"/>
<path d="M4.27631 20.5625H16.5064C17.5419 20.5241 17.5411 19.038 16.5064 19H4.27631C3.24084 19.0384 3.24162 20.5244 4.27631 20.5625Z" fill="#22ADCF"/>
<path d="M4.27631 24.0566H16.5064C17.5419 24.0182 17.5411 22.5322 16.5064 22.4941H4.27631C3.24084 22.5326 3.24162 24.0186 4.27631 24.0566Z" fill="#22ADCF"/>
<path d="M4.27631 27.5508H16.5064C17.5419 27.5123 17.5411 26.0263 16.5064 25.9883H4.27631C3.24084 26.0267 3.24162 27.5127 4.27631 27.5508Z" fill="#22ADCF"/>
<path d="M23.4951 10.0801H35.7252C36.7607 10.0416 36.7599 8.55562 35.7252 8.51758H23.4951C22.4596 8.55594 22.4604 10.042 23.4951 10.0801Z" fill="#22ADCF"/>
<path d="M23.4951 13.5742H35.7252C36.7607 13.5358 36.7599 12.0498 35.7252 12.0117H23.4951C22.4596 12.0502 22.4604 13.5362 23.4951 13.5742Z" fill="#22ADCF"/>
<path d="M23.4951 17.0684H35.7252C36.7607 17.0299 36.7599 15.5439 35.7252 15.5059H23.4951C22.4596 15.5442 22.4604 17.0303 23.4951 17.0684Z" fill="#22ADCF"/>
<path d="M23.4951 27.5508H35.7252C36.7607 27.5123 36.7599 26.0263 35.7252 25.9883H23.4951C22.4596 26.0267 22.4604 27.5127 23.4951 27.5508Z" fill="#22ADCF"/>
<path fill-rule="evenodd" clip-rule="evenodd" d="M4.27539 9.29883H11.2641V16.2875H4.27539V9.29883Z" fill="#BDE6F1"/>
<path fill-rule="evenodd" clip-rule="evenodd" d="M23.4941 19.7812H35.7243V23.2756H23.4941V19.7812Z" fill="#BDE6F1"/>
</g>
<defs>
<clipPath id="clip0">
<rect width="40" height="40" fill="white"/>
</clipPath>
</defs>
</svg>
