<svg width="64" height="64" viewBox="0 0 64 64" fill="none" xmlns="http://www.w3.org/2000/svg">
<circle cx="32" cy="32" r="32" fill="#E6E6E6"/>
<mask id="mask0" style="mask-type:alpha" maskUnits="userSpaceOnUse" x="0" y="0" width="64" height="64">
<circle cx="32" cy="32" r="32" fill="#CCD6E0"/>
</mask>
<g mask="url(#mask0)">
<path d="M7 65C8.13542 54.1244 12.2813 45.0785 22.6562 39.9043C24.5885 38.9429 24.0625 38.3846 22.7396 37.2836C13.8333 29.8712 16.0052 16.1526 26.6771 12.0381C33.4219 9.43806 40.7865 11.8417 44.6615 17.9101C48.4115 23.7925 47.4844 31.4736 42.4115 36.3429C41.5521 37.1699 40.6198 37.9194 39.5 38.8964C50.8958 44.0086 55.849 53.2715 57 65C40.3333 65 23.6667 65 7 65Z" fill="#FEFEFE"/>
</g>
</svg>
