<svg width="112" height="23" viewBox="0 0 112 23" fill="none" xmlns="http://www.w3.org/2000/svg">
<path d="M9.3148 3.49603C8.0132 3.49603 7.62272 4.08767 7.62272 5.4054V7.5837H11.111L10.7726 11.1335H7.62272V21.8636H3.43157V11.1335H0.620117V7.61059H3.43157V5.48608C3.43157 1.88248 4.8373 0 8.71606 0C9.52306 0 10.3561 0.0537851 11.1631 0.161355V3.49603" fill="#004F9D"/>
<path d="M11.4003 14.2841C11.4003 10.304 13.2225 7.29199 17.0753 7.29199C19.1578 7.29199 20.4334 8.39459 21.0582 9.793V7.6147H25.0671V21.8946H21.0321V19.7432C20.4594 21.1148 19.1318 22.1905 17.0492 22.1905C13.2225 22.1905 11.3743 19.2054 11.3743 15.1984L11.4003 14.2841ZM15.5915 15.2522C15.5915 17.3767 16.3464 18.802 18.2988 18.802C20.0169 18.802 20.876 17.5112 20.876 15.4673V14.0151C20.876 11.9713 19.9909 10.6805 18.2988 10.6805C16.3464 10.6805 15.5915 12.0789 15.5915 14.2303V15.2522Z" fill="#004F9D"/>
<path d="M33.7573 7.29199C35.3712 7.29199 36.9331 7.6416 37.7662 8.26012L36.829 11.3259C35.97 10.8956 35.0068 10.6805 34.0436 10.6805C31.7788 10.6805 30.7896 12.0251 30.7896 14.3378V15.1715C30.7896 17.4843 31.7788 18.8289 34.0436 18.8289C35.0068 18.8289 35.97 18.5869 36.829 18.1566L37.7662 21.2223C36.9331 21.814 35.3973 22.1905 33.7573 22.1905C28.8372 22.1905 26.6245 19.4743 26.6245 15.0908V14.4185C26.6245 10.035 28.8372 7.29199 33.7573 7.29199Z" fill="#004F9D"/>
<path d="M38.3145 15.2791V14.0151C38.3145 9.95435 40.5532 7.29199 45.1088 7.29199C49.4041 7.29199 51.3044 9.98125 51.3044 13.9613V16.2472H42.5056C42.5837 18.2104 43.4427 19.0709 45.7596 19.0709C47.2694 19.0709 48.7793 18.7751 50.2111 18.2104L50.966 21.1685C49.8726 21.7602 47.6079 22.2174 45.6034 22.2174C40.2929 22.1905 38.3145 19.4743 38.3145 15.2791ZM42.5056 13.3966H47.5558V13.047C47.5558 11.4872 46.9571 10.2502 45.1088 10.2502C43.2345 10.2502 42.5056 11.4872 42.5056 13.3966Z" fill="#004F9D"/>
<path d="M66.8207 15.1952C66.8207 19.1753 64.9725 22.1872 61.1197 22.1872C59.0372 22.1872 57.5794 21.1115 57.0067 19.74V21.8914H53.0498V0.431183L57.241 0.0546875V9.60154C57.8397 8.33759 59.1934 7.31567 61.1458 7.31567C64.9725 7.31567 66.8468 10.3007 66.8468 14.3077L66.8207 15.1952ZM62.6296 14.2002C62.6296 12.1832 61.8746 10.6772 59.8702 10.6772C58.1521 10.6772 57.241 11.9412 57.241 13.985V15.491C57.241 17.5348 58.1781 18.7988 59.8702 18.7988C61.8746 18.7988 62.6296 17.2928 62.6296 15.2759V14.2002Z" fill="#004F9D"/>
<path d="M68.1978 15.0908V14.3647C68.1978 10.2502 70.4626 7.29199 75.0702 7.29199C79.6779 7.29199 81.9427 10.2502 81.9427 14.3647V15.0908C81.9427 19.2054 79.6779 22.1636 75.0702 22.1636C70.4626 22.1636 68.1978 19.2323 68.1978 15.0908ZM77.7776 14.0689C77.7776 12.1864 77.0227 10.6805 75.0702 10.6805C73.1178 10.6805 72.3629 12.1864 72.3629 14.0689V15.4135C72.3629 17.296 73.1178 18.802 75.0702 18.802C77.0227 18.802 77.7776 17.296 77.7776 15.4135V14.0689Z" fill="#004F9D"/>
<path d="M83.375 15.0908V14.3647C83.375 10.2502 85.6398 7.29199 90.2474 7.29199C94.8551 7.29199 97.1199 10.2502 97.1199 14.3647V15.0908C97.1199 19.2054 94.8551 22.1636 90.2474 22.1636C85.6398 22.1636 83.375 19.2323 83.375 15.0908ZM92.9548 14.0689C92.9548 12.1864 92.1998 10.6805 90.2474 10.6805C88.295 10.6805 87.5401 12.1864 87.5401 14.0689V15.4135C87.5401 17.296 88.295 18.802 90.2474 18.802C92.1998 18.802 92.9548 17.296 92.9548 15.4135V14.0689Z" fill="#004F9D"/>
<path d="M102.873 14.4188L107.012 7.58805H111.438L107.117 14.6608L111.62 21.8949H107.169L102.873 14.9028V21.8949H98.7083V0.434638L102.873 0.03125" fill="#004F9D"/>
</svg>
