<svg width="116" height="31" viewBox="0 0 116 31" fill="none" xmlns="http://www.w3.org/2000/svg">
<path d="M115.599 6.10035C115.586 6.05876 115.573 6.01717 115.556 5.97559C105.402 5.97974 95.2534 5.97559 85.1043 5.97974C85.0785 6.00886 85.0614 6.03797 85.0571 6.0754C85.0571 13.7152 85.0571 21.3508 85.0527 28.9906C85.117 29.3982 85.3485 29.7683 85.6571 30.047C85.67 30.0511 85.7 30.0552 85.7129 30.0594C85.8714 30.2215 86.0986 30.3007 86.3129 30.3755C86.4715 30.3672 86.6258 30.4337 86.7843 30.4171H99.385C99.505 30.4129 99.6292 30.4337 99.7449 30.388C99.7493 30.3715 99.7535 30.3423 99.7578 30.3256C99.7622 30.3048 99.7664 30.2591 99.7707 30.2342C100.041 28.7703 100.302 27.3022 100.589 25.8383L100.615 25.6512C99.4493 25.6469 98.2792 25.6512 97.1135 25.6469C96.8306 25.6386 96.5392 25.6469 96.2563 25.6136C95.772 25.5928 95.2834 25.6095 94.7991 25.5637C94.1991 25.5637 93.6034 25.5096 93.0033 25.5096C92.5319 25.4639 92.0561 25.4806 91.5804 25.4598C91.2719 25.4224 90.9546 25.439 90.6419 25.4265C90.1318 25.3724 89.6132 25.4099 89.1032 25.3558C88.5632 25.36 88.0231 25.3142 87.4831 25.3017C87.4874 25.2975 87.4917 25.2809 87.4917 25.2767C87.6717 25.2809 87.8474 25.2685 88.0274 25.2643C88.426 25.2144 88.8289 25.2477 89.2275 25.1936C89.6432 25.1936 90.0547 25.1395 90.4704 25.1395C90.839 25.0896 91.2119 25.1188 91.5804 25.0688C92.0134 25.0688 92.4376 25.0148 92.8705 25.0106C93.2263 24.9648 93.5863 24.9898 93.942 24.944C94.3578 24.9482 94.7692 24.8858 95.1849 24.89C95.5921 24.8442 96.0078 24.8566 96.4149 24.815C96.3764 24.6613 96.3464 24.5074 96.3121 24.3534C96.2821 24.2578 96.1621 24.2786 96.085 24.2661C95.1549 24.1371 94.2292 24.0083 93.3034 23.8835C93.3634 23.8377 93.4449 23.8585 93.5134 23.8502C94.2335 23.7961 94.9492 23.7337 95.6693 23.6838C95.8321 23.6756 95.9907 23.6464 96.1536 23.6422C96.0807 23.426 96.0379 23.1889 95.9393 22.9893C94.4007 22.7606 92.862 22.5568 91.3276 22.3114C91.7262 22.249 92.1291 22.22 92.5277 22.1784L92.562 22.1658C93.8349 22.0368 95.1121 21.8913 96.385 21.7708C98.0007 21.7625 99.6123 21.7665 101.228 21.7708C101.279 21.7625 101.37 21.7873 101.378 21.7167C101.511 21.043 101.64 20.3693 101.772 19.6955C101.957 18.7598 102.248 17.8365 102.698 16.9839C103.405 15.6115 104.524 14.447 105.887 13.6735C107.16 12.9499 108.634 12.6005 110.1 12.534C110.576 12.4924 111.056 12.5049 111.527 12.5631C111.836 12.6338 112.153 12.717 112.397 12.9208C112.599 13.0788 112.719 13.3117 112.809 13.5446C113.006 14.0977 113.117 14.6716 113.212 15.2497C113.216 15.4826 113.259 15.7446 113.13 15.9567C113.01 16.1647 112.77 16.2645 112.543 16.3269C111.716 16.5348 110.85 16.3393 110.023 16.5348C109.341 16.6762 108.707 17.0422 108.274 17.5704C107.764 18.1858 107.494 18.951 107.344 19.7163C107.228 20.3984 107.083 21.0804 106.967 21.7666C107.781 21.7708 108.6 21.7624 109.418 21.7708C109.744 21.7708 110.078 21.9455 110.211 22.2449C110.383 22.6275 110.344 23.0601 110.289 23.4635C110.22 23.9168 110.108 24.3659 109.898 24.7818C109.723 25.1353 109.431 25.4597 109.033 25.5845C108.827 25.6635 108.604 25.6468 108.386 25.6468C107.665 25.6468 106.945 25.6551 106.225 25.6468C106.11 26.1584 106.033 26.6824 105.93 27.2023C105.741 28.2128 105.557 29.2276 105.368 30.2424C105.364 30.2757 105.36 30.3463 105.36 30.3838C105.698 30.4004 106.037 30.3838 106.375 30.392C108.887 30.392 111.403 30.3878 113.919 30.392C114.189 30.4004 114.463 30.338 114.699 30.2091C114.84 30.1592 114.926 30.0385 115.05 29.972C115.17 29.9055 115.204 29.7683 115.307 29.6809C115.419 29.4896 115.534 29.2901 115.543 29.0654C115.556 29.0654 115.59 29.0612 115.607 29.0571C115.594 21.4049 115.607 13.7526 115.599 6.10035Z" fill="url(#paint0_linear)" stroke="#FCD109" stroke-width="0.094"/>
<path d="M89.0529 1.0641C89.4172 0.951809 89.7987 1.02667 90.1716 1.00172C97.1706 1.00587 104.169 1.00172 111.168 1.00172C111.584 0.98508 111.948 1.21382 112.334 1.33026C112.643 1.45087 112.964 1.54652 113.273 1.67545C113.337 1.7004 113.384 1.75447 113.431 1.80021C113.427 2.34918 113.431 2.90231 113.431 3.45543C113.436 3.60099 113.41 3.75071 113.461 3.89211C113.551 3.90459 113.598 3.97113 113.658 4.02519C113.941 4.14996 114.181 4.35374 114.438 4.52009C114.824 4.78626 115.236 5.01916 115.613 5.29364C115.63 5.40177 115.617 5.51406 115.583 5.61387C115.544 5.73032 115.57 5.85508 115.557 5.97153C105.404 5.97569 95.2546 5.97153 85.1055 5.97569C85.084 5.83845 85.1226 5.70121 85.0626 5.57228C85.054 5.46415 85.0155 5.32275 85.1226 5.24789C85.5512 4.95677 86.0055 4.69477 86.4255 4.38701C86.687 4.22482 86.9398 4.05846 87.1926 3.89211C87.2441 3.80893 87.2269 3.70496 87.2269 3.61347C87.2269 3.01044 87.2269 2.4074 87.2312 1.80437C87.3769 1.62138 87.6299 1.60059 87.8312 1.50909C88.2386 1.35938 88.65 1.21382 89.0529 1.0641ZM89.0786 1.1348C88.53 1.33858 87.9771 1.53405 87.4285 1.73783C87.3557 1.75031 87.317 1.81269 87.2785 1.86675C87.2828 1.90003 87.2871 1.95825 87.2871 1.99152C87.2827 2.49058 87.2871 2.98964 87.2827 3.4887C87.2871 3.61347 87.2699 3.73823 87.317 3.85052C87.2613 3.90459 87.2014 3.95865 87.1327 4.00024C86.5113 4.39117 85.9112 4.81537 85.2898 5.20215C85.1826 5.26453 85.0626 5.3477 85.0969 5.48495C85.0755 5.5598 85.114 5.62219 85.1955 5.60139C86.5413 5.59308 87.8828 5.60971 89.2286 5.58892C91.2302 5.58892 93.2274 5.59308 95.2289 5.58892L95.2589 5.57644C95.3489 5.59723 95.4389 5.58892 95.5332 5.58892C99.1591 5.58892 102.785 5.59308 106.415 5.58892C107.555 5.59308 108.7 5.58892 109.844 5.58892C111.73 5.58892 113.62 5.60555 115.506 5.59723C115.561 5.58476 115.578 5.54733 115.557 5.48079C115.553 5.41425 115.578 5.32275 115.506 5.28116C115.206 5.14392 114.948 4.93182 114.661 4.76547C114.559 4.68229 114.426 4.63654 114.348 4.52425C114.053 4.36206 113.778 4.16243 113.487 3.9836C113.431 3.95033 113.388 3.89627 113.341 3.85052C113.367 3.76319 113.375 3.66753 113.375 3.57604C113.371 3.04787 113.375 2.51969 113.371 1.99152C113.384 1.90834 113.38 1.81269 113.303 1.75862C112.788 1.57979 112.278 1.38849 111.768 1.2055C111.61 1.13064 111.434 1.08905 111.262 1.0641H89.357C89.2629 1.06826 89.1729 1.114 89.0786 1.1348Z" fill="#F8F3B5" stroke="#F8F3B5" stroke-width="0.094"/>
<path d="M87.2864 1.98926C87.6635 2.14314 88.0663 2.23047 88.4478 2.38019C88.6536 2.45921 88.7179 2.67547 88.8079 2.85014C88.7178 2.93747 88.6106 3.00817 88.5035 3.07472C88.1092 3.33256 87.7063 3.58209 87.3163 3.84826C87.2691 3.73597 87.2864 3.61121 87.282 3.48644C87.2864 2.98738 87.2821 2.48832 87.2864 1.98926ZM112.209 2.38019C112.59 2.23463 112.989 2.13482 113.371 1.98926C113.375 2.51743 113.371 3.0456 113.375 3.57378C113.375 3.66527 113.366 3.76092 113.341 3.84826C113.006 3.62368 112.668 3.41158 112.333 3.19116C112.17 3.07472 111.99 2.98738 111.845 2.84598C111.935 2.67131 112.003 2.45921 112.209 2.38019Z" fill="#F7B402" stroke="#F7B402" stroke-width="0.094"/>
<path d="M93.8268 2.54841C94.2983 2.44028 94.8254 2.84785 94.7869 3.32611C94.7912 3.79606 94.281 4.17868 93.814 4.07055C93.6254 4.00816 93.4453 3.91251 93.3297 3.75032C93.1796 3.5299 93.1453 3.23462 93.2654 2.99341C93.3511 2.76051 93.5825 2.60247 93.8268 2.54841ZM106.055 2.81042C106.252 2.59831 106.565 2.47771 106.856 2.55257C107.075 2.61495 107.289 2.75219 107.383 2.96013C107.572 3.3178 107.426 3.80022 107.057 3.98737C106.732 4.16204 106.32 4.07886 106.072 3.82517C105.819 3.54653 105.802 3.08906 106.055 2.81042Z" fill="#BDA727" stroke="#BDA727" stroke-width="0.094"/>
<path d="M88.5039 3.08128C88.611 3.01473 88.7182 2.94403 88.8083 2.8567L88.8382 2.88581C88.8682 3.10207 88.8467 3.32249 88.8553 3.53875C88.8425 4.18753 88.8682 4.84047 88.8382 5.48925C87.591 5.48925 86.3438 5.48093 85.0965 5.48925C85.0623 5.352 85.1823 5.26883 85.2894 5.20644C85.9109 4.81967 86.5109 4.39547 87.1324 4.00454C87.201 3.96295 87.2609 3.90889 87.3167 3.85482C87.7067 3.58865 88.1096 3.33912 88.5039 3.08128ZM111.802 2.9981C111.802 2.94403 111.815 2.89829 111.845 2.85254C111.991 2.99394 112.171 3.08128 112.334 3.19772C112.668 3.41814 113.006 3.63024 113.341 3.85482C113.388 3.90057 113.431 3.95463 113.486 3.9879C113.778 4.16673 114.052 4.36636 114.348 4.52855C114.425 4.64084 114.558 4.68659 114.661 4.76977C114.948 4.93612 115.205 5.14822 115.505 5.28546C115.578 5.32705 115.552 5.41855 115.557 5.48509C114.309 5.48925 113.066 5.48093 111.819 5.48925C111.798 5.32289 111.811 5.15654 111.806 4.99434C111.806 4.32893 111.798 3.66351 111.802 2.9981Z" fill="#F7E62D" stroke="#F7E62D" stroke-width="0.094"/>
<path d="M115.557 5.47529C114.309 5.47945 113.066 5.47113 111.819 5.47944C111.798 5.31309 111.811 5.14674 111.806 4.98454C111.806 4.31913 111.798 3.65371 111.802 2.9883C111.802 2.93423 111.815 2.88849 111.845 2.84274C111.935 2.66807 112.004 2.45597 112.209 2.37695C112.591 2.23139 112.989 2.13158 113.371 1.98602C113.384 1.90284 113.379 1.80719 113.302 1.75312C112.788 1.57429 112.278 1.38298 111.768 1.19999C111.609 1.12514 111.434 1.08355 111.262 1.05859H89.3567C89.2624 1.06275 89.1724 1.1085 89.0781 1.12929C88.5295 1.33308 87.9766 1.52854 87.428 1.73233C87.3552 1.7448 87.3165 1.80719 87.278 1.86125C87.2823 1.89452 87.2866 1.95275 87.2866 1.98602C87.6638 2.13989 88.0666 2.22723 88.4481 2.37695C88.6538 2.45597 88.7181 2.67223 88.8081 2.8469L88.838 2.87601C88.868 3.09227 88.8466 3.31269 88.8552 3.52895C88.8423 4.17773 88.868 4.83067 88.838 5.47944C87.5908 5.47944 86.3437 5.47113 85.0964 5.47944C85.075 5.5543 85.1136 5.61669 85.195 5.59589C86.5408 5.58758 87.8823 5.60421 89.2281 5.58342C91.2297 5.58342 93.2269 5.58757 95.2284 5.58342L95.2584 5.57094C95.3484 5.59173 95.4384 5.58342 95.5327 5.58342C99.1586 5.58342 102.784 5.58757 106.415 5.58342C107.555 5.58757 108.699 5.58342 109.843 5.58342C111.729 5.58342 113.619 5.60005 115.505 5.59173C115.561 5.57926 115.578 5.54183 115.557 5.47529ZM93.2656 2.99246C93.3513 2.75956 93.5826 2.60153 93.827 2.54746C94.2985 2.43933 94.8256 2.8469 94.7871 3.32516C94.7914 3.79511 94.2812 4.17773 93.8142 4.0696C93.6256 4.00721 93.4455 3.91156 93.3299 3.74937C93.1799 3.52895 93.1456 3.23367 93.2656 2.99246ZM106.055 2.80947C106.252 2.59737 106.565 2.47676 106.856 2.55162C107.075 2.614 107.289 2.75124 107.383 2.95919C107.572 3.31685 107.426 3.79927 107.058 3.98642C106.732 4.16109 106.321 4.07791 106.072 3.82423C105.819 3.54558 105.802 3.08811 106.055 2.80947Z" fill="url(#paint1_radial)" stroke="#FCD109" stroke-width="0.094"/>
<path d="M107.146 7.30988C107.206 7.32236 106.834 6.96279 106.907 6.94615C106.976 6.95447 107.236 6.75863 107.55 6.91841C107.864 7.07819 107.786 7.45211 107.75 7.59077C107.708 7.75579 107.6 7.8611 107.514 7.94427C107.467 7.9817 107.361 8.03993 107.297 8.03577C107.336 7.83198 107.211 7.79871 107.203 7.59077L107.146 7.30988Z" fill="url(#paint2_linear)" stroke="#FCD109" stroke-width="0.094"/>
<path d="M93.4454 7.53025C93.4368 7.73819 93.3125 7.77146 93.3511 7.97524C93.2868 7.9794 93.1811 7.92118 93.134 7.88375C93.0482 7.80057 92.9401 7.69527 92.8976 7.53025C92.8619 7.39163 92.784 7.01771 93.0983 6.85789C93.4125 6.69806 93.6726 6.8939 93.7411 6.88563C93.814 6.90226 93.4417 7.26184 93.5016 7.24936L93.4454 7.53025Z" fill="url(#paint3_linear)" stroke="#FCD109" stroke-width="0.094"/>
<path d="M106.585 9.97814C106.649 9.92383 106.692 9.92383 106.778 9.92383C106.264 11.0051 105.664 12.0864 104.762 12.9283C104.665 13.0119 104.563 13.0894 104.456 13.1603C104.353 13.2336 104.252 13.3024 104.151 13.3725C104.053 13.4389 103.955 13.5057 103.859 13.5753C103.615 13.7043 103.401 13.8831 103.131 13.9621C102.638 14.1908 102.106 14.3447 101.571 14.4529C101.361 14.4862 101.146 14.536 100.932 14.5402C100.666 14.6151 100.383 14.561 100.113 14.5776C99.9635 14.6026 99.8305 14.5194 99.6849 14.536C99.5584 14.5187 99.4323 14.4979 99.3069 14.4736C99.1797 14.4484 99.0534 14.4193 98.928 14.3863C96.9633 13.7916 95.0346 12.336 94.4727 10.3674C94.4474 10.2348 94.4346 10.1002 94.4346 9.96542C94.4945 10.0819 94.5567 10.1975 94.6211 10.312C95.4203 12.0033 97.0061 13.3341 98.8796 13.7354C99.0317 13.8027 99.1962 13.7791 99.342 13.8373C99.4749 13.8373 99.6034 13.8331 99.732 13.8747C100.173 13.883 100.615 13.8789 101.056 13.8789C101.116 13.883 101.172 13.8539 101.232 13.8415C101.968 13.8173 102.689 13.6225 103.36 13.3273C103.494 13.2682 103.627 13.2051 103.757 13.1386C103.87 13.0805 103.981 13.0175 104.089 12.9498C104.196 12.8835 104.299 12.8128 104.399 12.7379C105.192 12.128 105.878 11.3378 106.344 10.4292C106.432 10.2656 106.513 10.1142 106.585 9.97814Z" fill="#BDA727" stroke="#BDA727" stroke-width="0.094"/>
<path d="M105.887 13.6728C107.16 12.9492 108.634 12.5998 110.1 12.5333C110.576 12.4917 111.056 12.5042 111.527 12.5624C111.836 12.6331 112.153 12.7163 112.397 12.9201C112.273 12.9284 112.153 12.8743 112.029 12.8577C111.677 12.7911 111.313 12.8161 110.957 12.8078C109.924 12.8078 108.883 12.8868 107.884 13.1613C107.361 13.3151 106.839 13.494 106.363 13.7601C105.54 14.201 104.799 14.7832 104.198 15.4819C103.127 16.6755 102.497 18.1893 102.193 19.7323C102.047 20.5598 101.88 21.3832 101.747 22.215C101.533 22.2358 101.314 22.2234 101.1 22.2234C100.157 22.2192 99.2139 22.215 98.271 22.2068C98.0696 22.215 97.8723 22.1694 97.671 22.1818C95.9566 22.19 94.2422 22.1776 92.5278 22.1776L92.5621 22.1651C93.835 22.0361 95.1123 21.8905 96.3852 21.77C98.0009 21.7617 99.6125 21.7658 101.228 21.77C101.28 21.7617 101.37 21.7865 101.378 21.7159C101.511 21.0422 101.64 20.3685 101.773 19.6947C101.957 18.7591 102.248 17.8358 102.698 16.9832C103.406 15.6108 104.524 14.4463 105.887 13.6728Z" fill="#0D69B3" stroke="#0D69B3" stroke-width="0.094"/>
<path d="M107.884 13.1601C108.883 12.8857 109.925 12.8066 110.957 12.8066C111.313 12.815 111.678 12.79 112.029 12.8565C112.153 12.8732 112.273 12.9272 112.398 12.9189C112.599 13.077 112.719 13.3099 112.809 13.5428C113.006 14.0959 113.118 14.6698 113.212 15.2479C113.216 15.4808 113.259 15.7428 113.13 15.9549C113.01 16.1628 112.771 16.2626 112.543 16.325C111.716 16.533 110.85 16.3375 110.023 16.533C109.342 16.6744 108.707 17.0403 108.274 17.5685C107.764 18.184 107.494 18.9491 107.344 19.7145C107.229 20.3965 107.083 21.0785 106.967 21.7648C106.916 21.9187 106.886 22.085 106.856 22.2473C107.666 22.2598 108.476 22.2473 109.286 22.2555C109.594 22.2473 109.903 22.2638 110.212 22.243C110.383 22.6257 110.345 23.0582 110.289 23.4616C110.22 23.9149 110.109 24.364 109.899 24.7799C109.723 25.1334 109.432 25.4578 109.033 25.5826C108.827 25.6616 108.604 25.645 108.386 25.645C107.666 25.645 106.946 25.6533 106.226 25.645C106.11 26.1566 106.033 26.6805 105.93 27.2004C105.742 28.211 105.557 29.2257 105.369 30.2405C105.364 30.2738 105.36 30.3445 105.36 30.3819V30.3861C103.487 30.3861 101.618 30.3903 99.7455 30.3861C99.7498 30.3695 99.754 30.3403 99.7583 30.3237C99.7627 30.3029 99.7669 30.2572 99.7712 30.2322C99.7755 30.2656 99.7797 30.3279 99.7841 30.357C99.8998 30.3695 100.11 30.4277 100.14 30.2656C100.431 28.7351 100.701 27.1963 101.001 25.6658C100.886 25.6408 100.766 25.6408 100.646 25.6616C100.629 25.7199 100.611 25.778 100.59 25.8363L100.616 25.6491C99.4499 25.6449 98.2798 25.6491 97.1141 25.6449C96.8311 25.6367 96.5397 25.6449 96.2569 25.6116C95.7726 25.5908 95.284 25.6075 94.7997 25.5617C94.1996 25.5617 93.6039 25.5077 93.0038 25.5077C92.5324 25.4619 92.0567 25.4785 91.5809 25.4577C91.2724 25.4204 90.9552 25.4369 90.6424 25.4245C90.1324 25.3704 89.6138 25.4079 89.1037 25.3538C88.5637 25.358 88.0237 25.3122 87.4836 25.2997C87.4879 25.2956 87.4922 25.2789 87.4922 25.2748C87.6722 25.2789 87.8479 25.2664 88.028 25.2623C88.4265 25.2124 88.8294 25.2456 89.228 25.1916C89.6438 25.1916 90.0552 25.1375 90.4709 25.1375C90.8395 25.0876 91.2124 25.1167 91.5809 25.0668C92.0139 25.0668 92.4381 25.0127 92.8711 25.0086C93.2268 24.9629 93.5868 24.9878 93.9426 24.9421C94.3583 24.9462 94.7697 24.8838 95.1855 24.888C95.5926 24.8421 96.0083 24.8547 96.4155 24.8131C96.377 24.6592 96.3469 24.5054 96.3127 24.3514C96.2827 24.2557 96.1627 24.2765 96.0855 24.2641C95.1555 24.1351 94.2297 24.0062 93.3039 23.8814C93.364 23.8356 93.4454 23.8564 93.514 23.8482C94.234 23.794 94.9497 23.7316 95.6698 23.6819C95.8327 23.6735 95.9912 23.6444 96.1541 23.6403C96.0812 23.424 96.0384 23.187 95.9398 22.9873C94.4012 22.7586 92.8625 22.5548 91.3281 22.3094C91.7267 22.2471 92.1296 22.2179 92.5282 22.1763C94.2426 22.1763 95.9569 22.1888 97.6713 22.1805C97.8727 22.168 98.0699 22.2138 98.2714 22.2055C99.2143 22.2138 100.157 22.218 101.1 22.2221C101.314 22.2221 101.533 22.2346 101.747 22.2138C101.88 21.382 102.047 20.5585 102.193 19.731C102.497 18.188 103.127 16.6742 104.199 15.4807C104.799 14.782 105.54 14.1997 106.363 13.7589C106.839 13.4929 107.362 13.314 107.884 13.1601Z" fill="#107BD4" stroke="#107BD4" stroke-width="0.094"/>
<path d="M106.967 21.7607C107.781 21.765 108.6 21.7566 109.419 21.765C109.744 21.765 110.079 21.9396 110.212 22.239C109.903 22.2598 109.594 22.2432 109.286 22.2515C108.476 22.2432 107.666 22.2558 106.856 22.2432C106.886 22.081 106.916 21.9147 106.967 21.7607ZM100.645 25.6576C100.765 25.6368 100.885 25.6368 101.001 25.6618C100.701 27.1923 100.431 28.731 100.14 30.2615C100.11 30.4236 99.8995 30.3655 99.7839 30.353C99.7795 30.3239 99.7753 30.2615 99.771 30.2282C100.041 28.7643 100.302 27.2962 100.59 25.8324C100.611 25.774 100.628 25.7159 100.645 25.6576Z" fill="#0D69B3" stroke="#0D69B3" stroke-width="0.094"/>
<path d="M107.342 7.42587C107.308 7.36348 107.303 7.28863 107.303 7.21793L107.269 7.22208C107.218 7.03909 107.059 6.86442 106.853 6.85611C106.699 6.84363 106.506 6.84779 106.416 6.98919C106.245 7.21377 106.326 7.50073 106.318 7.75442C106.318 7.77105 106.322 7.80016 106.322 7.8168C106.322 7.98731 106.3 8.15367 106.27 8.32002C106.245 8.36993 106.232 8.42399 106.232 8.48221C106.159 8.87315 106.013 9.25992 105.816 9.61342C105.778 9.66333 105.748 9.71739 105.735 9.77561C105.606 9.99187 105.452 10.1915 105.293 10.3911C105.268 10.4119 105.246 10.4369 105.225 10.4618C105.113 10.5949 104.993 10.7072 104.869 10.8236C104.839 10.8403 104.818 10.8611 104.792 10.8777C104.646 11.015 104.483 11.1439 104.308 11.2478C104.286 11.2603 104.265 11.277 104.239 11.2936C103.142 11.9964 101.809 12.2876 100.51 12.3C99.4087 12.3333 98.2986 12.1046 97.3042 11.6429C97.2872 11.6346 97.2443 11.618 97.2271 11.6097C97.06 11.5223 96.8885 11.4475 96.7342 11.3393C96.6999 11.3227 96.6656 11.3019 96.627 11.2853C96.4685 11.1938 96.3185 11.094 96.177 10.9775C96.1299 10.9359 96.0784 10.9027 96.027 10.8652C95.8727 10.7446 95.7141 10.6157 95.5814 10.4701C95.5471 10.4327 95.5127 10.3994 95.4785 10.3662C95.0114 9.89622 94.6471 9.3223 94.4543 8.69847C94.2699 8.20357 94.2957 7.66292 94.2742 7.14307C94.1199 6.91433 93.7942 6.78541 93.5371 6.92681C93.4299 7.00167 93.4171 7.13891 93.3356 7.23456C93.2028 8.60698 93.8071 9.97524 94.7714 10.965C94.7714 10.9983 94.7886 11.0191 94.8186 11.0316C94.9901 11.1855 95.1571 11.3435 95.3286 11.4932C95.3586 11.5223 95.3929 11.5514 95.4314 11.5764C95.6029 11.7136 95.7872 11.8384 95.9672 11.9673C96.0015 11.9923 96.0358 12.0131 96.0743 12.0339C96.3101 12.167 96.5328 12.325 96.7858 12.4165C96.8029 12.429 96.8329 12.4498 96.8501 12.4581C97.6644 12.8365 98.543 13.0944 99.4431 13.1776C99.5416 13.1776 99.6402 13.1859 99.7388 13.2067C100.167 13.2316 100.596 13.2191 101.025 13.2108C102.349 13.0985 103.716 12.7866 104.822 12.0297L104.835 12.0463C104.869 12.0172 104.899 11.9923 104.933 11.9673C105.109 11.8426 105.281 11.7095 105.452 11.5722C105.491 11.5431 105.533 11.5099 105.572 11.4724C105.761 11.2728 105.979 11.0898 106.138 10.8611L106.163 10.8736C106.176 10.8528 106.198 10.8112 106.211 10.7904C106.356 10.5991 106.489 10.3994 106.618 10.1998C106.626 10.1873 106.648 10.1665 106.656 10.1541L106.639 10.1374C106.652 10.1208 106.682 10.0875 106.695 10.0709C106.931 9.6051 107.141 9.11852 107.214 8.60282C107.244 8.59034 107.261 8.56539 107.261 8.53628C107.265 8.36993 107.325 8.21189 107.308 8.04554C107.346 7.84175 107.35 7.63381 107.342 7.42587Z" fill="white" stroke="white" stroke-width="0.094"/>
<path d="M107.436 7.19771C106.764 7.23677 106.133 7.01356 105.522 6.80957M93.0071 7.28089C93.3545 7.38665 94.1527 7.12057 94.3786 7.36407L93.0071 7.28089ZM93.2071 8.30671C93.54 8.1943 94.2539 7.92813 94.55 8.08492L93.2071 8.30671ZM93.55 9.33257C93.7109 9.38314 94.0282 9.10878 94.1858 9.02839C94.4202 8.90874 94.6607 8.81704 94.9215 8.77807L93.55 9.33257ZM94.0643 10.4139C94.2303 10.185 94.429 9.99487 94.6688 9.83226C94.9065 9.67114 95.5567 9.24066 95.8358 9.38801L94.0643 10.4139ZM94.55 11.1902C94.7384 11.0448 94.8151 10.7877 95.013 10.635C95.2523 10.4503 95.619 10.4172 95.8644 10.303L94.55 11.1902ZM95.3572 11.7655C95.4135 11.3634 95.8343 10.8782 96.2358 10.9129L95.3572 11.7655ZM95.9786 12.3269C96.1908 12.3063 96.3703 11.8455 96.5137 11.6893C96.7287 11.4554 96.9514 11.3835 97.2358 11.3011L95.9786 12.3269ZM97.2072 12.826C97.1935 12.535 97.5034 11.7008 97.8644 11.7447L97.2072 12.826ZM98.1216 13.1033C98.1066 12.7594 98.2898 11.7252 98.7216 11.6893L98.1216 13.1033ZM99.0645 13.6578C98.9826 13.1769 98.9879 12.4813 99.3787 12.1328L99.0645 13.6578ZM100.236 13.7687C100.192 13.3679 99.782 12.5576 100.236 12.2438V13.7687ZM101.493 13.4914C101.297 13.271 101.183 12.4013 101.265 12.1606L101.493 13.4914ZM102.693 13.2973C102.542 13.031 102.355 12.781 102.298 12.4718C102.263 12.2871 102.323 12.0239 102.293 11.8833L102.693 13.2973ZM103.693 12.8814C103.365 12.6734 103.274 11.9086 103.379 11.5783L103.693 12.8814ZM104.665 12.4655C104.432 11.9802 104.183 11.6038 104.179 11.0515L104.665 12.4655ZM105.608 11.5783C105.245 11.3418 104.783 10.9119 104.836 10.4416L105.608 11.5783ZM106.608 10.8298C106.057 10.7114 105.397 10.2334 105.065 9.80389L106.608 10.8298ZM107.065 9.91481C106.668 9.83217 105.356 9.3354 105.436 8.83351L107.065 9.91481ZM107.493 8.94443C106.94 8.74759 106.135 8.57063 105.693 8.19584L107.493 8.94443ZM107.779 8.05718C107.431 8.08613 106.931 7.92239 106.577 7.86309C106.184 7.79725 105.819 7.66862 105.436 7.58582L107.779 8.05718Z" stroke="#D1D1D1" stroke-width="2"/>
<path d="M21.4194 9.20598C22.0405 9.11502 22.7553 9.05817 23.2826 9.43338C23.6107 9.6721 23.7279 10.1042 23.7044 10.4909C23.7279 11.1276 23.4232 11.8098 22.8374 12.1396C22.3217 12.4125 21.7007 12.4352 21.1265 12.3783C20.7398 12.3329 20.3531 12.1283 20.1539 11.7872C19.7085 10.7979 20.2593 9.39928 21.4194 9.20598ZM2.83433 9.92234C2.86943 9.58119 3.18586 9.27418 3.5491 9.28562C6.25609 9.28562 8.95126 9.29693 11.6465 9.28562C11.9394 9.26287 12.2558 9.38789 12.3964 9.63804C12.5955 9.97919 12.4198 10.3544 12.3964 10.7069C12.3144 11.1844 12.3378 11.8213 11.7637 12.0031C9.79499 12.06 7.82629 12.0031 5.85759 12.0259C5.67012 13.2311 5.49436 14.425 5.3068 15.6189C5.3068 15.6644 5.31859 15.7669 5.31859 15.8122C6.7599 15.8009 8.20122 15.8122 9.64254 15.8009C10.041 15.7781 10.4628 16.108 10.4276 16.5173C10.3925 16.938 10.2988 17.3473 10.2402 17.7681C10.1932 18.0523 9.95892 18.3138 9.65424 18.3707C8.04881 18.4048 6.41994 18.3366 4.81469 18.4048C4.55681 20.1218 4.25212 21.8387 3.98258 23.5557C3.94752 23.8969 3.66619 24.1925 3.31466 24.2038C2.64679 24.2152 1.97877 24.2152 1.3109 24.2038C0.877334 24.2152 0.525757 23.7489 0.642891 23.3509C1.35791 18.8711 2.09612 14.4024 2.83433 9.92234ZM14.74 9.30824C15.3494 9.26283 15.9704 9.29693 16.5798 9.28562C16.9548 9.26287 17.3298 9.54709 17.3648 9.92234C17.3648 10.2179 17.2828 10.5136 17.2477 10.8092C16.7555 13.8566 16.2517 16.904 15.7594 19.9513C15.6891 20.4402 15.5602 20.9633 15.7126 21.4636C15.8884 21.9639 16.6734 21.7478 16.8609 22.2708C16.9781 22.6916 16.8492 23.135 16.814 23.5672C16.7789 24.1357 16.111 24.2607 15.654 24.3859C14.658 24.5678 13.4509 24.4314 12.7361 23.6353C12.2205 23.0555 12.1853 22.2367 12.2909 21.5091C12.9119 17.6431 13.533 13.7771 14.1658 9.89959C14.201 9.61529 14.4353 9.35378 14.74 9.30824ZM38.0006 9.92234C38.0357 9.58119 38.3521 9.28562 38.7037 9.28562H40.4849C40.9301 9.27418 41.2935 9.74043 41.188 10.1497C40.7779 12.674 40.356 15.1984 39.9459 17.7225C40.5669 17.6316 41.2701 17.5179 41.7037 17.029C42.4301 16.233 43.0278 15.3121 43.4731 14.3456C43.6253 13.9703 43.7074 13.4245 44.2113 13.3563C44.8793 13.3335 45.5589 13.3449 46.2268 13.3563C46.6839 13.3449 47.0237 13.8452 46.8713 14.2545C46.6956 14.8573 46.4026 15.4144 46.098 15.9488C45.4183 17.0177 44.6684 18.0751 43.684 18.9165C44.1175 20.1787 44.6684 21.4067 45.1488 22.6462C45.2894 23.0555 45.6293 23.533 45.3128 23.9311C44.9495 24.4086 44.2699 24.1697 43.766 24.2266C43.2387 24.1697 42.477 24.4313 42.184 23.8514C41.6332 22.612 41.1763 21.3386 40.6138 20.0991C40.2857 20.1104 39.9459 20.1218 39.6177 20.0877C39.5944 20.1332 39.5475 20.2241 39.524 20.2697C39.3482 21.4067 39.1607 22.5438 38.9732 23.6808C38.9028 23.9537 38.6802 24.1926 38.3756 24.2153C37.7546 24.2381 37.1217 24.2266 36.489 24.2266C36.2194 24.2266 35.9734 24.0561 35.8562 23.8287C35.739 23.6011 35.8092 23.3398 35.8445 23.0896C36.571 18.7005 37.2858 14.3114 38.0006 9.92234ZM70.5655 11.1618C70.6475 10.8433 70.9638 10.6273 71.2921 10.6386C71.7608 10.6501 72.2412 10.6273 72.7216 10.6501C73.1084 10.6614 73.413 11.0366 73.3661 11.4005C73.2958 12.0486 73.1317 12.6968 73.0849 13.3448C73.5418 13.3448 74.0105 13.3335 74.4676 13.3448C74.8778 13.3448 75.2176 13.7542 75.1473 14.1407C75.0886 14.4934 75.0066 14.8345 74.948 15.1868C74.8894 15.4826 74.6317 15.7213 74.3388 15.7668C73.7762 15.8009 73.2255 15.744 72.6748 15.8009C72.4404 17.3245 72.1826 18.8481 71.9365 20.372C71.9013 20.7244 71.8779 21.1223 72.0888 21.4294C72.4053 21.8046 72.9559 21.6681 73.4013 21.7137C73.7528 21.816 73.9754 22.1913 73.9168 22.5325C73.8582 22.919 73.8465 23.3056 73.7528 23.6808C73.6122 24.1014 73.1083 24.1811 72.7215 24.2834C71.6552 24.5564 70.4248 24.5564 69.4757 23.9537C68.5969 23.3737 68.4562 22.2481 68.5499 21.2929C68.7959 19.4508 69.1828 17.6202 69.3937 15.7668C69.0656 15.7781 68.6671 15.8236 68.4211 15.5393C68.1398 15.2551 68.2805 14.8343 68.3273 14.4818C68.3977 14.1065 68.3859 13.6176 68.8078 13.4129C69.1476 13.2878 69.5344 13.3789 69.8976 13.3333C70.1202 12.6057 70.3311 11.8781 70.5655 11.1618ZM63.9447 14.8458C64.6829 14.1294 65.5735 13.5382 66.593 13.2426C67.0382 13.0492 67.6125 13.4131 67.6008 13.8907C67.5188 14.5161 67.3664 15.13 67.2609 15.744C67.214 16.0511 66.9445 16.3126 66.6281 16.3467C65.4797 16.54 64.4837 17.2107 63.6869 18.0068C63.4877 18.2457 63.1947 18.473 63.1596 18.8027C62.9135 20.3946 62.6557 21.9865 62.3979 23.5784C62.3628 23.9195 62.058 24.2494 61.6948 24.2266H59.9136C59.5035 24.2494 59.1403 23.8515 59.1871 23.4534C59.7027 20.3037 60.2184 17.1655 60.7222 14.0157C60.7456 13.6974 60.98 13.3904 61.3198 13.3562C61.7534 13.3335 62.1869 13.3448 62.6323 13.3448C62.9838 13.3448 63.3118 13.6518 63.3118 14.0044C63.3118 14.4933 63.265 14.9935 63.2533 15.4939C63.5346 15.3234 63.7103 15.0505 63.9447 14.8458ZM20.1421 13.4017C20.7749 13.2767 21.4311 13.379 22.0639 13.3449C22.4272 13.2994 22.8138 13.5268 22.8724 13.8793C22.9194 14.1977 22.8255 14.5047 22.7903 14.8118C22.31 17.7341 21.8294 20.6563 21.3607 23.5786C21.3256 23.9084 21.0444 24.2381 20.6811 24.2267C20.0484 24.2267 19.4155 24.2381 18.7711 24.2154C18.3726 24.1698 18.0797 23.7265 18.1852 23.3511C18.6891 20.3153 19.1696 17.2906 19.6734 14.2546C19.6969 13.9248 19.7906 13.5382 20.1421 13.4017ZM58.0621 13.5496C56.3161 13.2312 54.535 13.0037 52.7655 13.1743C51.1835 13.3676 49.5899 14.0613 48.6173 15.3234C47.2697 16.9835 46.8127 19.2122 47.1173 21.2817C47.2814 22.2709 47.7266 23.2716 48.5587 23.8856C49.3321 24.4655 50.375 24.545 51.3125 24.3972C52.6248 24.147 53.738 23.3285 54.6521 22.4188C54.699 22.8053 54.6052 23.192 54.6287 23.5672C54.6521 23.9196 54.9802 24.2494 55.3435 24.2266H56.5388C56.8903 24.2266 57.1833 23.9084 57.2068 23.5785C57.7106 20.4971 58.2145 17.4269 58.7067 14.3569C58.7769 13.9703 58.4606 13.5951 58.0621 13.5496ZM54.7694 18.9052C54.3006 19.758 53.6444 20.5312 52.9061 21.1906C52.4843 21.5317 51.9452 21.8843 51.3711 21.7706C50.8086 21.6569 50.5391 21.0884 50.4102 20.5994C50.1173 19.3259 50.3868 17.9386 51.125 16.8357C51.4531 16.324 51.9804 15.9374 52.5898 15.7782C53.4451 15.5735 54.3475 15.6758 55.1796 15.9032L55.2264 15.9488C55.1209 16.938 54.9217 17.9159 54.7694 18.9052ZM35.0594 17.1996C35.0476 16.0625 34.7313 14.8686 33.911 14.0158C33.3486 13.4131 32.5048 13.1061 31.6846 13.1174C30.3252 13.072 29.048 13.7202 28.0519 14.5843C27.8292 14.7549 27.6769 15.0051 27.4309 15.1415C27.4309 14.7661 27.466 14.391 27.4542 14.0044C27.466 13.6518 27.1261 13.3449 26.7746 13.3449H25.5793C25.2044 13.3449 24.8997 13.6633 24.8762 14.0157C24.138 18.564 23.3881 23.1123 22.6498 27.6606C22.5444 28.0813 22.9195 28.5134 23.3647 28.502C24.0209 28.4907 24.6889 28.5475 25.3333 28.4565C25.849 28.32 25.8372 27.7401 25.9193 27.3194C26.1067 26.3188 26.2357 25.3182 26.3528 24.3061C28.6613 24.7382 31.3448 24.4427 33.0673 22.7484C34.4735 21.2589 35.1296 19.2008 35.0594 17.1996ZM31.7783 18.348C31.7081 19.3941 31.3213 20.4516 30.5714 21.2133C29.5988 22.1117 28.1222 21.9865 26.927 21.6797C26.9037 21.6455 26.8684 21.5772 26.8567 21.5432C27.0441 20.554 27.1379 19.5533 27.3723 18.5754C28.0285 17.5294 28.8253 16.4718 29.962 15.892C30.3838 15.6987 30.958 15.7442 31.2627 16.1194C31.7783 16.7448 31.8252 17.5862 31.7783 18.348Z" fill="#107BD4" stroke="#107BD4" stroke-width="0.101"/>
<defs>
<linearGradient id="paint0_linear" x1="100.33" y1="5.97554" x2="100.33" y2="30.4198" gradientUnits="userSpaceOnUse">
<stop stop-color="#F7E830"/>
<stop offset="1" stop-color="#FDCB06"/>
</linearGradient>
<radialGradient id="paint1_radial" cx="0" cy="0" r="1" gradientUnits="userSpaceOnUse" gradientTransform="translate(100.2 17.115) scale(20.4902 19.8826)">
<stop offset="0.596" stop-color="#F29405"/>
<stop offset="0.736" stop-color="#F7D01E"/>
<stop offset="1" stop-color="#FDCB06"/>
</radialGradient>
<linearGradient id="paint2_linear" x1="107.34" y1="6.85515" x2="107.347" y2="8.01269" gradientUnits="userSpaceOnUse">
<stop stop-color="#FADA1C"/>
<stop offset="1" stop-color="#FDCB06"/>
</linearGradient>
<linearGradient id="paint3_linear" x1="93.3082" y1="6.79463" x2="93.3015" y2="7.95216" gradientUnits="userSpaceOnUse">
<stop stop-color="#FADA1C"/>
<stop offset="1" stop-color="#FDCB06"/>
</linearGradient>
</defs>
</svg>
