<svg width="99" height="33" viewBox="0 0 99 33" fill="none" xmlns="http://www.w3.org/2000/svg">
<path d="M12.6897 0H13.5612C16.5867 0.0662293 19.5628 1.29147 21.7004 3.46048C20.9111 4.27179 20.1054 5.04999 19.3326 5.8613C18.1323 4.76851 16.6853 3.92409 15.1068 3.62606C12.7719 3.12934 10.2561 3.57638 8.29943 4.91753C6.16186 6.3249 4.71488 8.70916 4.40246 11.259C4.05716 13.7757 4.76421 16.4249 6.39206 18.3786C7.95413 20.2827 10.3384 21.4749 12.8048 21.5576C15.1068 21.6901 17.5075 20.9781 19.1846 19.3555C20.5001 18.2131 21.1085 16.4745 21.3058 14.7857C18.5763 14.7857 15.8467 14.8023 13.1172 14.7857V11.3749H24.6108C25.2027 15.0341 24.3477 19.1568 21.5853 21.7729C19.7437 23.6273 17.195 24.7201 14.5971 24.9353C12.0813 25.1837 9.48332 24.7035 7.24709 23.4783C4.56689 22.0378 2.42932 19.6039 1.37697 16.7395C0.390395 14.1068 0.373952 11.1265 1.29475 8.47735C2.13334 6.05998 3.74475 3.92409 5.81655 2.43393C7.80615 0.960325 10.2233 0.149016 12.6897 0Z" fill="#3780FF"/>
<path d="M78.6265 0.861328H82.1452V24.5052C80.9778 24.5052 79.7939 24.5217 78.6265 24.4886C78.6429 16.6239 78.6265 8.74262 78.6265 0.861328Z" fill="#38B137"/>
<path d="M32.4386 9.05801C34.6091 8.64408 36.9604 9.10768 38.7527 10.4157C40.3805 11.5747 41.5151 13.396 41.8604 15.3829C42.3043 17.6844 41.7453 20.2011 40.2654 22.0224C38.6705 24.059 36.056 25.1517 33.5074 24.9862C31.1725 24.8537 28.9034 23.6781 27.5222 21.7575C25.9601 19.6381 25.5819 16.7241 26.4369 14.2405C27.292 11.5747 29.7091 9.53817 32.4386 9.05801ZM32.9319 12.2039C32.044 12.4357 31.2218 12.949 30.6299 13.6775C29.0349 15.5982 29.1336 18.7275 30.893 20.5157C31.896 21.5422 33.4087 22.0224 34.8064 21.7409C36.1054 21.5091 37.2399 20.6316 37.8648 19.4726C38.95 17.5022 38.6376 14.7868 36.9768 13.247C35.9081 12.2536 34.346 11.8396 32.9319 12.2039Z" fill="#FA3913"/>
<path d="M49.8663 9.05825C52.3492 8.57809 55.0622 9.2735 56.9203 11.0286C59.9458 13.7605 60.2746 18.8767 57.6931 22.0226C56.131 24.0095 53.5988 25.1023 51.0995 24.9864C48.7153 24.9202 46.3639 23.728 44.9499 21.7577C43.3549 19.5887 43.0096 16.6084 43.9139 14.0751C44.8183 11.4922 47.1861 9.52186 49.8663 9.05825ZM50.3596 12.2041C49.4716 12.4359 48.6495 12.9492 48.0576 13.6612C46.479 15.5487 46.5448 18.6284 48.2384 20.4331C49.2414 21.5094 50.8035 22.0392 52.2505 21.7412C53.533 21.4928 54.684 20.6318 55.3089 19.4728C56.3777 17.4859 56.0652 14.7705 54.3881 13.2307C53.3193 12.2373 51.7572 11.8399 50.3596 12.2041Z" fill="#FCBD06"/>
<path d="M64.6487 10.0181C66.5396 8.82599 69.0554 8.49484 71.0943 9.52139C71.7356 9.80287 72.2618 10.283 72.7715 10.7632C72.7879 10.3161 72.7715 9.85254 72.7879 9.38894C73.8896 9.40549 74.9913 9.38894 76.1094 9.40549V24.0091C76.093 26.2112 75.5339 28.5458 73.9554 30.1518C72.2289 31.9235 69.5816 32.4699 67.1973 32.1056C64.6487 31.7248 62.4289 29.8538 61.4423 27.4861C62.4289 27.0059 63.4648 26.6251 64.4843 26.1781C65.0598 27.5358 66.2272 28.6948 67.6906 28.9597C69.154 29.2246 70.8477 28.8604 71.8014 27.6351C72.8208 26.3768 72.8208 24.6548 72.7715 23.115C72.0151 23.8601 71.1436 24.5223 70.0913 24.7707C67.8057 25.4164 65.29 24.6217 63.5306 23.0653C61.7547 21.5089 60.7024 19.1081 60.8011 16.7238C60.8504 14.025 62.3631 11.4255 64.6487 10.0181ZM68.0524 12.1375C67.0494 12.303 66.1121 12.866 65.4708 13.6442C63.9252 15.4986 63.9252 18.4624 65.4873 20.2837C66.3752 21.3599 67.8057 21.956 69.1869 21.8069C70.4859 21.6745 71.6863 20.8466 72.3275 19.7042C73.4128 17.767 73.2319 15.1343 71.7685 13.4455C70.8641 12.4024 69.4171 11.8891 68.0524 12.1375Z" fill="#3780FF"/>
<path d="M86.37 10.8612C88.3432 9.00673 91.3851 8.37756 93.9173 9.35444C96.318 10.2651 97.8472 12.5666 98.62 14.9343C95.0519 16.4244 91.5002 17.898 87.9321 19.3882C88.4254 20.3319 89.1818 21.1929 90.2012 21.5406C91.6318 22.0539 93.3418 21.8718 94.5422 20.9114C95.019 20.5472 95.3972 20.067 95.7589 19.6034C96.6633 20.216 97.5677 20.8121 98.472 21.4247C97.1895 23.3619 95.0355 24.7196 92.717 24.9349C90.1519 25.2495 87.4224 24.256 85.7616 22.236C83.0321 19.057 83.2952 13.7256 86.37 10.8612ZM88.1294 13.9243C87.5704 14.7356 87.3402 15.729 87.3566 16.7059C89.7408 15.7124 92.1251 14.719 94.5093 13.709C94.1147 12.7818 93.161 12.2189 92.1908 12.0698C90.6288 11.7884 89.0009 12.6328 88.1294 13.9243Z" fill="#FA3913"/>
</svg>
