<svg width="115" height="25" viewBox="0 0 115 25" fill="none" xmlns="http://www.w3.org/2000/svg">
<path d="M114.07 11.0539V9.0414H111.579V5.91272L111.495 5.93863L109.155 6.65684L109.109 6.6709V9.04151H105.416V7.72088C105.416 7.10594 105.553 6.63536 105.823 6.32153C106.091 6.01146 106.475 5.85383 106.964 5.85383C107.316 5.85383 107.68 5.93696 108.047 6.10091L108.139 6.14209V4.02265L108.096 4.00671C107.754 3.88339 107.289 3.82129 106.712 3.82129C105.985 3.82129 105.325 3.97992 104.749 4.29431C104.173 4.60913 103.72 5.05857 103.403 5.63C103.086 6.20076 102.926 6.85997 102.926 7.58948V9.0414H101.191V11.0539H102.926V19.5322H105.416V11.0539H109.109V16.4417C109.109 18.6607 110.152 19.7852 112.21 19.7852C112.548 19.7852 112.904 19.7454 113.267 19.6676C113.637 19.5877 113.889 19.5079 114.037 19.4226L114.07 19.4031V17.372L113.969 17.4392C113.834 17.5296 113.665 17.6034 113.468 17.6583C113.27 17.7142 113.104 17.7422 112.976 17.7422C112.494 17.7422 112.138 17.6119 111.916 17.3548C111.692 17.0953 111.579 16.6415 111.579 16.0068V11.0539H114.07ZM95.6302 17.7425C94.7263 17.7425 94.0137 17.4419 93.5116 16.8497C93.0063 16.2544 92.7503 15.4058 92.7503 14.3276C92.7503 13.2152 93.0063 12.3445 93.5118 11.7388C94.0143 11.137 94.7201 10.8316 95.6099 10.8316C96.4733 10.8316 97.1607 11.1233 97.653 11.6991C98.1478 12.2778 98.3989 13.1415 98.3989 14.2668C98.3989 15.406 98.1628 16.2811 97.6972 16.8665C97.2347 17.4474 96.5393 17.7425 95.6302 17.7425ZM95.7409 8.78868C94.0165 8.78868 92.6469 9.29557 91.6704 10.2953C90.6945 11.2951 90.1997 12.6787 90.1997 14.4081C90.1997 16.0506 90.6827 17.3718 91.6354 18.3343C92.5881 19.2972 93.8846 19.7849 95.4887 19.7849C97.1602 19.7849 98.5026 19.271 99.4787 18.2574C100.455 17.245 100.949 15.8744 100.949 14.1855C100.949 12.5172 100.485 11.1862 99.5696 10.2301C98.6536 9.27354 97.3652 8.78868 95.7409 8.78868ZM86.1848 8.78868C85.0118 8.78868 84.0416 9.08967 83.3004 9.68312C82.5547 10.2801 82.1764 11.0631 82.1764 12.0106C82.1764 12.5031 82.2581 12.9405 82.4187 13.3116C82.5804 13.6839 82.8305 14.0117 83.1629 14.2868C83.4927 14.5596 84.0019 14.8454 84.6765 15.1363C85.2437 15.3704 85.6666 15.5684 85.9353 15.7245C86.1979 15.8775 86.3843 16.0313 86.4896 16.181C86.5919 16.3276 86.6437 16.5282 86.6437 16.7757C86.6437 17.4805 86.1176 17.8235 85.035 17.8235C84.6335 17.8235 84.1754 17.7393 83.6737 17.5735C83.1755 17.4102 82.7053 17.171 82.2796 16.8644L82.1762 16.79V19.1951L82.2142 19.2128C82.5665 19.376 83.0107 19.5136 83.5343 19.6219C84.0569 19.7303 84.5317 19.7854 84.9442 19.7854C86.217 19.7854 87.242 19.483 87.9899 18.886C88.7426 18.2849 89.124 17.4834 89.124 16.5032C89.124 15.796 88.9187 15.1896 88.5139 14.7005C88.112 14.2155 87.4143 13.7701 86.4411 13.3765C85.6658 13.0643 85.1692 12.8052 84.9643 12.6062C84.7668 12.4141 84.6665 12.1423 84.6665 11.7981C84.6665 11.493 84.7903 11.2486 85.0444 11.0507C85.3005 10.8518 85.657 10.7506 86.1041 10.7506C86.519 10.7506 86.9435 10.8163 87.3657 10.9452C87.7875 11.0741 88.1581 11.2466 88.4674 11.4577L88.5691 11.5275V9.24597L88.5301 9.22915C88.2447 9.10638 87.8684 9.00133 87.4114 8.91609C86.9564 8.83141 86.5438 8.78868 86.1848 8.78868ZM75.6847 17.7425C74.7811 17.7425 74.0683 17.4419 73.5662 16.8497C73.0609 16.2544 72.8053 15.406 72.8053 14.3276C72.8053 13.2152 73.0612 12.3445 73.5668 11.7388C74.0689 11.137 74.7745 10.8316 75.6648 10.8316C76.5279 10.8316 77.2152 11.1233 77.7077 11.6991C78.2026 12.2778 78.4536 13.1415 78.4536 14.2668C78.4536 15.406 78.2174 16.2811 77.7517 16.8665C77.2893 17.4474 76.5942 17.7425 75.6847 17.7425ZM75.7957 8.78868C74.071 8.78868 72.7012 9.29557 71.7252 10.2953C70.7494 11.2951 70.2542 12.6787 70.2542 14.4081C70.2542 16.0513 70.7376 17.3718 71.6903 18.3343C72.643 19.2972 73.9394 19.7849 75.5435 19.7849C77.2148 19.7849 78.5574 19.271 79.5336 18.2574C80.5093 17.245 81.004 15.8744 81.004 14.1855C81.004 12.5172 80.5399 11.1862 79.6242 10.2301C78.708 9.27354 77.4198 8.78868 75.7957 8.78868ZM66.4743 10.8582V9.0414H64.0145V19.532H66.4743V14.1656C66.4743 13.2532 66.6805 12.5035 67.0875 11.9373C67.4892 11.3778 68.0246 11.0943 68.6783 11.0943C68.8999 11.0943 69.1486 11.131 69.4179 11.2035C69.6845 11.2755 69.8776 11.3538 69.9915 11.4361L70.0949 11.5113V9.02347L70.0551 9.00631C69.826 8.90867 69.5019 8.85941 69.0919 8.85941C68.4737 8.85941 67.9206 9.05867 67.4467 9.45099C67.0309 9.79581 66.7303 10.2686 66.5004 10.8582H66.4743ZM59.6094 8.78868C58.4809 8.78868 57.4744 9.03144 56.6182 9.50999C55.7603 9.98965 55.0968 10.6744 54.6454 11.5452C54.1959 12.4138 53.9677 13.4285 53.9677 14.5601C53.9677 15.5513 54.189 16.4609 54.6263 17.2626C55.0638 18.0656 55.683 18.6938 56.4669 19.1295C57.2497 19.5646 58.1544 19.7853 59.1561 19.7853C60.3251 19.7853 61.3232 19.5508 62.1234 19.0884L62.1557 19.0698V16.809L62.0523 16.8847C61.6899 17.1496 61.2848 17.3611 60.8489 17.5134C60.4142 17.6656 60.0178 17.7425 59.6702 17.7425C58.705 17.7425 57.9302 17.4396 57.3678 16.8422C56.8041 16.2441 56.5183 15.4043 56.5183 14.3474C56.5183 13.2839 56.8164 12.4225 57.4037 11.7868C57.9893 11.1531 58.7656 10.8316 59.7108 10.8316C60.5193 10.8316 61.3072 11.1063 62.0526 11.6487L62.1557 11.7239V9.34173L62.1224 9.32291C61.8419 9.16538 61.4593 9.03531 60.9844 8.93668C60.5115 8.83827 60.0489 8.78868 59.6094 8.78868ZM52.2736 9.04151H49.8138V19.532H52.2736V9.04151ZM51.0689 4.57249C50.664 4.57249 50.3109 4.71075 50.0208 4.98473C49.7295 5.25949 49.5818 5.60542 49.5818 6.01368C49.5818 6.41552 49.7277 6.75514 50.0163 7.02259C50.303 7.28926 50.6572 7.42442 51.069 7.42442C51.4807 7.42442 51.8362 7.28926 52.1263 7.02303C52.4183 6.75514 52.5663 6.41563 52.5663 6.01368C52.5663 5.6197 52.4222 5.27731 52.1383 4.9958C51.8546 4.71485 51.4947 4.57249 51.0689 4.57249ZM44.9315 8.26751V19.532H47.4418V4.89363H43.9674L39.5512 15.7666L35.2655 4.89363H31.6497V19.5319H34.0087V8.2664H34.0897L38.6153 19.532H40.3956L44.8505 8.26751H44.9315Z" fill="#706D6E"/>
<path d="M11.5716 11.6088H0V0H11.5716V11.6088Z" fill="#F1511B"/>
<path d="M24.35 11.6088H12.7786V0H24.35V11.6088Z" fill="#80CC28"/>
<path d="M11.5713 24.4319H0V12.8232H11.5713V24.4319Z" fill="#00ADEF"/>
<path d="M24.35 24.4319H12.7786V12.8232H24.35V24.4319Z" fill="#FBBC09"/>
</svg>
