<svg width="18" height="18" viewBox="0 0 18 18" fill="none" xmlns="http://www.w3.org/2000/svg">
<path d="M14.7503 12.2497C13.8612 11.3606 12.8025 10.7028 11.6471 10.3063C12.6084 9.53132 13.2244 8.34441 13.2244 7.01634C13.2244 6.2621 13.0232 5.52786 12.6481 4.88573L14.6678 4.14155V8.31885H16.076V2.60135L9.02098 0L1.92396 2.59327V3.61744L5.35879 4.87347C4.97896 5.51809 4.77552 6.25595 4.77552 7.01638C4.77552 8.34444 5.39156 9.53135 6.35284 10.3064C5.19746 10.7028 4.1388 11.3607 3.2497 12.2497C1.71372 13.7856 0.867828 15.8278 0.867828 18H2.27598C2.27598 15.2028 3.9929 12.799 6.42832 11.7872L8.29585 14.4551V18H9.704V14.4551L11.5715 11.7872C14.0069 12.7989 15.7239 15.2027 15.7239 18H17.132C17.1321 15.8278 16.2862 13.7856 14.7503 12.2497ZM4.6247 3.10563L9.01877 1.50005L13.3898 3.11175L9.03227 4.71734L4.6247 3.10563ZM8.99996 13.0054L7.85738 11.3732C8.22881 11.3093 8.61057 11.276 8.99996 11.276C9.38935 11.276 9.77111 11.3093 10.1425 11.3732L8.99996 13.0054ZM8.99996 9.83268C7.44704 9.83268 6.18363 8.56927 6.18363 7.01634C6.18363 6.42115 6.37055 5.84673 6.71512 5.36938L9.0341 6.21735L11.2953 5.38418C11.633 5.85861 11.8163 6.42832 11.8163 7.01634C11.8163 8.56927 10.5529 9.83268 8.99996 9.83268Z" fill="white"/>
</svg>
