<svg width="16" height="18" viewBox="0 0 16 18" fill="none" xmlns="http://www.w3.org/2000/svg">
<path d="M15.3323 14.8572L11.8097 7.38281H11.8319C13.2857 7.38281 14.4686 6.19998 14.4686 4.74609V2.14453C14.4686 1.2722 13.7589 0.5625 12.8865 0.5625C12.0142 0.5625 11.3045 1.2722 11.3045 2.14453V4.2177L9.45304 4.21829C10.0047 3.78584 10.3602 3.11407 10.3602 2.36039C10.3602 1.05887 9.30134 0 7.99982 0C6.6983 0 5.63943 1.05887 5.63943 2.36039C5.63943 3.23638 6.11945 4.00184 6.82993 4.40912C6.28272 4.5926 5.78178 4.90496 5.36546 5.32986C4.95796 5.7458 4.66001 6.24066 4.4862 6.77827L0.667597 14.8567C0.590394 15.02 0.602206 15.2115 0.698886 15.3642C0.795531 15.5168 0.963648 15.6094 1.14435 15.6094H5.75537L5.96382 17.5296C5.99289 17.7972 6.21891 18 6.4881 18H9.51154C9.78073 18 10.0067 17.7972 10.0358 17.5296L10.2443 15.6094H14.8553C15.0359 15.6094 15.2039 15.517 15.3006 15.3645C15.3973 15.212 15.4093 15.0206 15.3323 14.8572ZM7.99982 6.26379L8.3492 7.15679L7.99982 7.60954L7.65044 7.15683L7.99982 6.26379ZM7.99982 1.05469C8.71978 1.05469 9.30552 1.64043 9.30552 2.36039C9.30552 3.08036 8.71978 3.66606 7.99982 3.66606C7.27985 3.66606 6.69412 3.08032 6.69412 2.36039C6.69412 1.64043 7.27989 1.05469 7.99982 1.05469ZM7.2061 5.39782L6.5595 7.05055C6.492 7.22303 6.51995 7.41821 6.63312 7.56485L7.58234 8.79486C7.68218 8.92427 7.83641 9.00004 7.99982 9.00004C8.16323 9.00004 8.31746 8.92427 8.4173 8.79486L9.36652 7.56485C9.47969 7.41825 9.50764 7.22303 9.44014 7.05055L8.74478 5.27319L11.832 5.27221C12.1232 5.2721 12.3592 5.03603 12.3592 4.74486V2.14453C12.3592 1.85375 12.5958 1.61719 12.8865 1.61719C13.1773 1.61719 13.4139 1.85375 13.4139 2.14453V4.74609C13.4139 5.61843 12.7042 6.32812 11.8319 6.32812H11.1639C10.8726 6.32812 10.6365 6.56423 10.6365 6.85547L10.6364 12.6914H5.36321V7.91005C5.36321 6.7435 6.14171 5.73873 7.2061 5.39782ZM1.97692 14.5547L4.30852 9.62216V13.2188C4.30852 13.51 4.54463 13.7461 4.83586 13.7461H5.55312L5.64091 14.5547H1.97692ZM6.9613 16.9453L6.614 13.7461H9.38568L9.03837 16.9453H6.9613ZM10.3587 14.5547L10.4465 13.7461H11.1638C11.455 13.7461 11.6911 13.51 11.6911 13.2188L11.6912 9.60525L14.0238 14.5547H10.3587Z" fill="white"/>
</svg>
