<svg width="18" height="18" viewBox="0 0 18 18" fill="none" xmlns="http://www.w3.org/2000/svg">
<path d="M15.8906 2.76564H15.2344V0.703125C15.2344 0.314789 14.9196 0 14.5312 0H3.46876C3.08043 0 2.76564 0.314789 2.76564 0.703125V2.76564H2.10938C0.946266 2.76564 0 3.7119 0 4.87501V13.125C0 14.2881 0.946266 15.2344 2.10938 15.2344H8.29688V16.5938H6.23436C5.84603 16.5938 5.53124 16.9085 5.53124 17.2969C5.53124 17.6852 5.84603 18 6.23436 18H11.7656C12.1539 18 12.4687 17.6852 12.4687 17.2969C12.4687 16.9085 12.1539 16.5938 11.7656 16.5938H9.70312V15.2344H15.8906C17.0537 15.2344 18 14.2881 18 13.125V4.87501C18 3.7119 17.0537 2.76564 15.8906 2.76564ZM15.8906 4.17189C16.2783 4.17189 16.5938 4.48731 16.5938 4.87501V11.0625H15.2344V4.17189H15.8906ZM4.17189 1.40625H13.8281V11.0625H4.17189V1.40625ZM2.10938 4.17189H2.76564V11.0625H1.40625V4.87501C1.40625 4.48731 1.72167 4.17189 2.10938 4.17189ZM15.8906 13.8281H2.10938C1.72167 13.8281 1.40625 13.5127 1.40625 13.125V12.4687H16.5938V13.125C16.5938 13.5127 16.2783 13.8281 15.8906 13.8281ZM5.53124 4.85156C5.53124 4.46323 5.84603 4.14844 6.23436 4.14844H11.7656C12.1539 4.14844 12.4687 4.46323 12.4687 4.85156C12.4687 5.2399 12.1539 5.55469 11.7656 5.55469H6.23436C5.84606 5.55469 5.53124 5.2399 5.53124 4.85156ZM5.53124 8.29688C5.53124 7.90854 5.84603 7.59375 6.23436 7.59375H11.7656C12.1539 7.59375 12.4687 7.90854 12.4687 8.29688C12.4687 8.68521 12.1539 9 11.7656 9H6.23436C5.84606 9 5.53124 8.68521 5.53124 8.29688Z" fill="white"/>
</svg>
