<svg width="18" height="18" viewBox="0 0 18 18" fill="none" xmlns="http://www.w3.org/2000/svg">
<g clip-path="url(#clip0)">
<path d="M8.78738 9.40047L4.81555 11.2145L2.06433 9.95186L5.07135 8.55734L4.55856 7.45152L0.353084 9.40187C0.137328 9.50204 -0.000451431 9.71842 -2.95515e-05 9.95612C0.000392328 10.194 0.139121 10.4096 0.355299 10.5089L4.56077 12.439C4.64142 12.4759 4.72819 12.4944 4.81492 12.4944C4.90127 12.4944 4.98782 12.4759 5.06805 12.4392L9.29385 10.5091L8.78738 9.40047Z" fill="white"/>
<path d="M8.78537 14.4196L4.81558 16.2517L1.21899 14.5838V9.95489H0V14.973C0 15.2103 0.137744 15.4262 0.353114 15.526L4.55855 17.4764C4.63984 17.514 4.72738 17.5328 4.81495 17.5328C4.9021 17.5328 4.98947 17.5141 5.07054 17.4765L9.29634 15.5262L8.78537 14.4196Z" fill="white"/>
<path d="M5.42437 11.9865H4.20538V16.8624H5.42437V11.9865Z" fill="white"/>
<path d="M17.6468 9.40187L13.4416 7.45152L12.9286 8.55734L15.9356 9.95186L13.1846 11.2145L9.21258 9.40068L8.70612 10.5093L12.9321 12.4394C13.0123 12.4759 13.0987 12.4944 13.1852 12.4944C13.272 12.4944 13.3589 12.4759 13.4392 12.439L17.6444 10.5089C17.8606 10.4096 17.9994 10.194 17.9997 9.95612C18.0001 9.71842 17.8626 9.50182 17.6468 9.40187Z" fill="white"/>
<path d="M16.7809 9.95489V14.584L13.1845 16.2519L9.21473 14.4198L8.70377 15.5264L12.9297 17.4768C13.0108 17.5142 13.098 17.5329 13.1851 17.5329C13.2727 17.5329 13.3604 17.514 13.4415 17.4764L17.6468 15.526C17.8621 15.4261 17.9999 15.2103 17.9999 14.973V9.95489H16.7809Z" fill="white"/>
<path d="M13.7947 11.9865H12.5757V16.8624H13.7947V11.9865Z" fill="white"/>
<path d="M13.462 2.47405L9.25647 0.523699C9.09395 0.448323 8.90642 0.448323 8.74368 0.523699L4.5382 2.47405C4.32245 2.57421 4.18449 2.79039 4.18509 3.02826C4.18569 3.26617 4.32445 3.48192 4.54042 3.58106L8.74589 5.51109C8.82654 5.54808 8.91331 5.56657 9.00004 5.56657C9.08677 5.56657 9.17354 5.54808 9.25419 5.51109L13.4597 3.58106C13.6759 3.48171 13.8146 3.26617 13.815 3.02826C13.8155 2.79035 13.6779 2.57421 13.462 2.47405ZM9.00008 4.28645L6.24946 3.02418L9.00008 1.74856L11.7507 3.02422L9.00008 4.28645Z" fill="white"/>
<path d="M12.5961 3.02707V7.65593L9.0001 9.32366L5.40414 7.6559V3.02707H4.18515V8.04519C4.18515 8.28249 4.32289 8.49825 4.53826 8.59799L8.74374 10.5486C8.82502 10.5861 8.91256 10.6051 9.00014 10.6051C9.08771 10.6051 9.17525 10.5862 9.25653 10.5488L13.4622 8.5982C13.6774 8.49825 13.8151 8.28249 13.8151 8.04519V3.02707H12.5961Z" fill="white"/>
<path d="M9.60958 5.05866H8.39059V14.9933H9.60958V5.05866Z" fill="white"/>
</g>
<defs>
<clipPath id="clip0">
<rect width="18" height="18" fill="white"/>
</clipPath>
</defs>
</svg>
