<svg width="18" height="18" viewBox="0 0 18 18" fill="none" xmlns="http://www.w3.org/2000/svg">
<path d="M16.418 0H8.96484C8.09251 0 7.38281 0.709699 7.38281 1.58203V5.1808L6.91935 4.71737C6.62052 4.41851 6.22325 4.25391 5.80078 4.25391H4.74609C4.52254 4.25391 2.86028 4.25391 2.63672 4.25391C1.18283 4.25391 0 5.43674 0 6.89062C0 7.19047 0 9.62156 0 10.0547C0 10.927 0.709699 11.6367 1.58203 11.6367C1.76685 11.6367 1.94439 11.6049 2.10938 11.5464V16.418C2.10938 17.2903 2.81907 18 3.69141 18C4.09623 18 4.466 17.8472 4.74609 17.5962C5.02618 17.8472 5.39596 18 5.80078 18C6.67311 18 7.38281 17.2903 7.38281 16.418V9.43748C7.78602 9.57969 8.23268 9.5523 8.61771 9.36046L10.3933 8.47266H16.418C17.2903 8.47266 18 7.76296 18 6.89062V1.58203C18 0.709699 17.2903 0 16.418 0ZM10.2554 7.36239L8.14665 8.41676C7.94883 8.51534 7.70312 8.48391 7.53729 8.31811L7.22841 8.00919C6.9023 7.68308 6.32957 7.90488 6.32816 8.38044C6.32816 8.38097 6.32809 8.38146 6.32809 8.38199V16.418C6.32809 16.7087 6.09152 16.9453 5.80075 16.9453C5.50997 16.9453 5.2734 16.7087 5.2734 16.418V11.1094C5.2734 10.8181 5.03729 10.582 4.74606 10.582C4.45482 10.582 4.21871 10.8181 4.21871 11.1094V16.418C4.21871 16.7087 3.98215 16.9453 3.69137 16.9453C3.40059 16.9453 3.16403 16.7087 3.16403 16.418V10.0547C3.16403 9.65707 3.16403 7.21561 3.16403 6.89062C3.16403 6.59939 2.92792 6.36328 2.63668 6.36328C2.34545 6.36328 2.10934 6.59939 2.10934 6.89062C2.10934 7.19047 2.10934 9.62156 2.10934 10.0547C2.10934 10.3455 1.87277 10.582 1.582 10.582C1.29122 10.582 1.05465 10.3455 1.05465 10.0547C1.05469 9.65707 1.05469 7.21561 1.05469 6.89062C1.05469 6.01829 1.76439 5.30859 2.63672 5.30859C3.03434 5.30859 5.4758 5.30859 5.80078 5.30859C5.94155 5.30859 6.07395 5.36347 6.17358 5.46314L7.74531 7.03487C7.90576 7.19536 8.15101 7.23512 8.354 7.13366L9.78377 6.41876C10.0455 6.2878 10.3609 6.39366 10.4913 6.65473C10.6217 6.91562 10.5163 7.23196 10.2554 7.36239ZM16.9453 6.89062C16.9453 7.1814 16.7087 7.41797 16.418 7.41797H11.5108C11.514 7.40893 11.5175 7.40007 11.5206 7.39097C11.5965 7.16316 11.6193 6.92627 11.5902 6.69488L14.4741 5.25294C14.7346 5.12269 14.8402 4.80593 14.7099 4.54542C14.5797 4.28491 14.2629 4.1793 14.0024 4.30959L11.1187 5.75146C10.6567 5.30455 9.93702 5.1627 9.31194 5.47552L8.4375 5.91275V1.58203C8.4375 1.29125 8.67407 1.05469 8.96484 1.05469H16.418C16.7087 1.05469 16.9453 1.29125 16.9453 1.58203V6.89062Z" fill="white"/>
</svg>
