<svg width="16" height="16" viewBox="0 0 16 16" fill="none" xmlns="http://www.w3.org/2000/svg">
<path d="M14 7.25V2.75C14 1.92275 13.3273 1.25 12.5 1.25H10.25C10.25 1.05109 10.171 0.860324 10.0304 0.719672C9.88971 0.57902 9.69894 0.500002 9.50003 0.500002H5.00003C4.80112 0.500002 4.61035 0.57902 4.4697 0.719672C4.32905 0.860324 4.25003 1.05109 4.25003 1.25H2.00003C1.17278 1.25 0.500031 1.92275 0.500031 2.75V12.5C0.500031 13.3273 1.17278 14 2.00003 14H7.25003C7.25003 14.8273 7.92278 15.5 8.75003 15.5H14C14.8273 15.5 15.5 14.8273 15.5 14V8.75C15.5 7.92275 14.8273 7.25 14 7.25ZM7.25003 8.75V12.5H2.00003V2.75H4.25003V4.25H10.25V2.75H12.5V7.25H8.75003C7.92278 7.25 7.25003 7.92275 7.25003 8.75ZM8.75003 14V8.75H14L14.0008 14H8.75003Z" fill="white"/>
</svg>
