<svg width="18" height="18" viewBox="0 0 18 18" fill="none" xmlns="http://www.w3.org/2000/svg">
<path d="M15.75 6C15.5985 6 12.1125 6.02175 9.00003 7.506C5.88753 6.02175 2.40153 6 2.25003 6C2.05112 6 1.86035 6.07902 1.7197 6.21967C1.57905 6.36032 1.50003 6.55109 1.50003 6.75V14.1622C1.50003 14.2629 1.52028 14.3625 1.55958 14.4551C1.59888 14.5478 1.65642 14.6316 1.72878 14.7015C1.87503 14.8425 2.08878 14.9303 2.27553 14.9115L2.37078 14.9108C2.88303 14.9108 5.59278 14.9843 8.68278 16.4295C8.69478 16.4355 8.70828 16.4332 8.72028 16.4377C8.80953 16.4745 8.90328 16.5 9.00003 16.5C9.09678 16.5 9.19053 16.4745 9.28053 16.4377C9.29253 16.4332 9.30603 16.4355 9.31803 16.4295C12.408 14.9835 15.1178 14.9108 15.63 14.9108L15.7253 14.9115C15.9038 14.9303 16.125 14.8425 16.272 14.7015C16.4175 14.5597 16.5 14.3647 16.5 14.1622V6.75C16.5 6.55109 16.421 6.36032 16.2804 6.21967C16.1397 6.07902 15.9489 6 15.75 6ZM3.00003 7.53675C4.11378 7.62 6.28578 7.89675 8.25003 8.80575V14.6122C6.00003 13.731 4.05753 13.4917 3.00003 13.4302V7.53675ZM15 13.4302C13.9425 13.4917 12 13.731 9.75003 14.6122V8.80575C11.7143 7.89675 13.8863 7.62 15 7.53675V13.4302Z" fill="white"/>
<path d="M9 6C10.2426 6 11.25 4.99264 11.25 3.75C11.25 2.50736 10.2426 1.5 9 1.5C7.75736 1.5 6.75 2.50736 6.75 3.75C6.75 4.99264 7.75736 6 9 6Z" fill="white"/>
</svg>
