<svg width="40" height="40" viewBox="0 0 40 40" fill="none" xmlns="http://www.w3.org/2000/svg">
<g clip-path="url(#clip0)">
<path d="M39.2186 33.7501H33.7499V28.8282C33.7499 28.621 33.6675 28.4223 33.5211 28.2758L32.511 27.2658L33.5211 26.2557C33.6675 26.1092 33.7499 25.9105 33.7499 25.7033V20.1131C33.7115 19.0776 32.2254 19.0784 32.1874 20.1131V25.3795L30.8537 26.7132C30.5512 27.0041 30.5512 27.5272 30.8537 27.8181L32.1874 29.1517V33.75H13.2811C13.074 33.75 12.8752 33.8324 12.7287 33.9788C12.5822 34.1253 12.4999 34.3241 12.4999 34.5313V36.0937C12.3817 39.1994 7.92955 39.1971 7.81244 36.0937V25.5189L9.14618 24.1853C9.44875 23.8943 9.44875 23.3713 9.14618 23.0803L7.81244 21.7467V14.6205L9.14618 13.2868C9.44875 12.9959 9.44875 12.4729 9.14618 12.1819L7.81244 10.8482V3.90635C7.81244 3.02768 7.5208 2.21597 7.02932 1.56262H29.8398C30.4594 1.55809 31.0468 1.79894 31.4912 2.24042C31.9401 2.6862 32.1874 3.27784 32.1874 3.90627V11.8683C32.2258 12.9038 33.7118 12.903 33.7499 11.8683V3.90635C33.7499 2.85847 33.3387 1.87308 32.5922 1.13176C31.8499 0.394657 30.868 -0.0104963 29.8343 0.00020678H3.91224C1.75624 -0.00338694 -0.00023435 1.75043 2.34523e-08 3.90643V5.46891C2.34523e-08 5.90039 0.349763 6.25016 0.781244 6.25016H6.24995V11.172C6.24995 11.3792 6.33229 11.5779 6.47878 11.7244L7.48893 12.7345L6.47878 13.7445C6.33229 13.891 6.24995 14.0897 6.24995 14.2969V22.0703C6.24995 22.2775 6.33229 22.4762 6.47878 22.6227L7.48893 23.6328L6.47878 24.6429C6.33229 24.7894 6.24995 24.9881 6.24995 25.1953V36.0937C6.24995 38.2476 8.00228 39.9999 10.1562 39.9999H36.0935C38.2474 39.9999 39.9998 38.2476 39.9998 36.0937V34.5313C39.9998 34.0999 39.65 33.7501 39.2186 33.7501ZM6.24995 4.68759H1.56249V3.90635C1.56249 2.61472 2.61279 1.56371 3.90419 1.56262H3.90622H3.91224C5.20183 1.5659 6.24995 2.61597 6.24995 3.90635V4.68759ZM38.4374 36.0938C38.4374 37.3861 37.386 38.4375 36.0936 38.4375H13.2793C13.7708 37.7842 14.0624 36.9723 14.0624 36.0938V35.3126H38.4373V36.0938H38.4374Z" fill="#22ADCF"/>
<path d="M28.2218 7.81249C28.2218 7.38101 27.872 7.03125 27.4406 7.03125H12.5615C11.526 7.06969 11.5268 8.55569 12.5615 8.59373H27.4406C27.8721 8.59373 28.2218 8.24397 28.2218 7.81249Z" fill="#22ADCF"/>
<path d="M25.4193 14.2969H12.5615C11.526 14.3353 11.5268 15.8213 12.5615 15.8594H25.4193C26.4548 15.8209 26.454 14.3349 25.4193 14.2969Z" fill="#22ADCF"/>
<path d="M25.4193 17.9297H12.5615C11.526 17.9681 11.5268 19.4541 12.5615 19.4922H25.4193C26.4548 19.4537 26.454 17.9677 25.4193 17.9297Z" fill="#22ADCF"/>
<path d="M25.4193 21.5625H12.5615C11.526 21.6009 11.5268 23.0869 12.5615 23.125H25.4193C26.4548 23.0865 26.454 21.6005 25.4193 21.5625Z" fill="#22ADCF"/>
<path fill-rule="evenodd" clip-rule="evenodd" d="M29.3418 22.6686C26.1005 16.6673 33.3259 7.8492 39.0049 5.93164C40.1843 11.8049 36.16 22.4762 29.3418 22.6686Z" fill="#BDE6F1"/>
<path d="M27.4406 26.7576H12.5615C11.526 26.7192 11.5268 25.2332 12.5615 25.1952H26.9895L33.6875 13.5939C33.9032 13.2202 34.3808 13.0921 34.7546 13.308C35.1283 13.5237 35.2564 14.0015 35.0406 14.3752L28.1171 26.367C27.9776 26.6087 27.7196 26.7576 27.4406 26.7576Z" fill="#22ADCF"/>
</g>
<defs>
<clipPath id="clip0">
<rect width="40" height="40" fill="white"/>
</clipPath>
</defs>
</svg>
