<svg width="84" height="26" viewBox="0 0 84 26" fill="none" xmlns="http://www.w3.org/2000/svg">
<path d="M83.3399 7.65664C82.5866 5.50727 80.5331 3.96381 78.1218 3.96381H78.0714C76.5037 3.96381 75.0907 4.61479 74.0851 5.65999C73.0778 4.61479 71.6648 3.96381 70.0988 3.96381H70.0483C68.6702 3.96381 67.4106 4.46737 66.4431 5.30054V4.87683C66.4099 4.45478 66.062 4.12316 65.6324 4.12316H61.9332C61.4807 4.12316 61.1155 4.4879 61.1155 4.94077V24.9854C61.1155 25.4386 61.4811 25.8031 61.9332 25.8031H65.6324C66.0447 25.8031 66.384 25.4956 66.4381 25.0981L66.4365 10.7084C66.4365 10.6581 66.4381 10.6114 66.4434 10.5643C66.5025 9.92196 66.974 9.39422 67.719 9.32796H68.4009C68.7123 9.35579 68.9753 9.46512 69.1821 9.6301C69.5041 9.88518 69.6831 10.2778 69.6831 10.7084L69.697 25.0272C69.697 25.4804 70.0642 25.8468 70.5147 25.8468H74.2139C74.6505 25.8468 75.0057 25.4996 75.0266 25.0673L75.025 10.6895C75.0233 10.2171 75.2424 9.79011 75.6269 9.53667C75.8164 9.41509 76.0445 9.3336 76.3071 9.30908H76.9891C77.7895 9.37865 78.2732 9.98457 78.2716 10.6895L78.2855 24.9891C78.2855 25.4423 78.6527 25.8067 79.1032 25.8067H82.8024C83.2529 25.8067 83.6201 25.442 83.6201 24.9891V9.60989C83.6201 8.56104 83.5019 8.1148 83.3399 7.65664ZM58.2972 4.1755H56.1814V0.744726C56.1814 0.333272 55.8474 0 55.435 0C55.3862 0 55.3394 0.00695696 55.2939 0.0155703C52.9483 0.65793 53.4181 3.89954 49.1363 4.1755H48.7203C48.6576 4.1755 48.5985 4.18412 48.5411 4.19637H48.5377L48.5411 4.19803C48.1755 4.27953 47.9006 4.60253 47.9006 4.99146V8.68295C47.9006 9.13251 48.2678 9.49891 48.72 9.49891H50.9524L50.9491 25.1511C50.9491 25.5973 51.3109 25.9584 51.7581 25.9584H55.4154C55.861 25.9584 56.2229 25.5973 56.2229 25.1511L56.2245 9.49891H58.2969C58.7474 9.49891 59.1146 9.13251 59.1146 8.68295V4.99179C59.1152 4.5419 58.748 4.1755 58.2972 4.1755Z" fill="#54C1F0"/>
<path d="M44.9877 4.17449H41.2886C40.8381 4.17449 40.4725 4.54089 40.4725 4.99044V12.6229C40.4639 13.0953 40.0811 13.4736 39.606 13.4736H38.0576C37.5775 13.4736 37.1894 13.0884 37.1894 12.609L37.1755 4.99044C37.1755 4.54089 36.8083 4.17449 36.3577 4.17449H32.6583C32.2058 4.17449 31.8406 4.54089 31.8406 4.99044V13.3557C31.8406 16.533 34.1111 18.7987 37.297 18.7987C37.297 18.7987 39.6877 18.7987 39.7607 18.8126C40.1923 18.8613 40.528 19.2224 40.528 19.667C40.528 20.1063 40.199 20.4657 39.7727 20.5194C39.7518 20.5227 39.7325 20.528 39.7099 20.5316L34.3004 20.5509C33.8478 20.5509 33.4826 20.9173 33.4826 21.3668V25.0563C33.4826 25.5079 33.8482 25.8723 34.3004 25.8723H40.3484C43.5359 25.8723 45.8048 23.6083 45.8048 20.4293V4.99077C45.8054 4.54089 45.4402 4.17449 44.9877 4.17449ZM9.50771 4.17383H1.42223C0.978675 4.17383 0.620117 4.53294 0.620117 4.97421V8.59084C0.620117 8.5978 0.621777 8.60475 0.621777 8.61171C0.621777 8.62894 0.620117 8.64649 0.620117 8.66206V25.0308C0.620117 25.4754 0.954108 25.8381 1.36844 25.8484H5.13729C5.58781 25.8484 5.955 25.4837 5.955 25.0325L5.96894 19.4228H9.50805C12.4695 19.4228 14.5332 17.3725 14.5332 14.4052V9.19841C14.5328 6.2311 12.4691 4.17383 9.50771 4.17383ZM9.18236 13.2159C9.18236 13.6933 8.79425 14.0822 8.31584 14.0822L5.96861 14.0839V9.51943H8.31584C8.79425 9.51943 9.18236 9.90471 9.18236 10.3841V13.2159ZM23.9427 4.1947H18.81C18.3558 4.1947 17.9886 4.53857 17.9886 4.9603V6.39608C17.9886 6.40469 17.9903 6.4153 17.9903 6.42391C17.9903 6.43418 17.9886 6.44478 17.9886 6.45505V8.42221C17.9886 8.86845 18.3784 9.23287 18.8584 9.23287H23.7461C24.1322 9.29349 24.4387 9.57475 24.4822 10.014V10.4898C24.4387 10.9082 24.1359 11.2136 23.767 11.2484H21.3468C18.1277 11.2484 15.8346 13.3822 15.8346 16.379V20.6708C15.8346 23.65 17.806 25.7699 21.0022 25.7699H27.7099C28.914 25.7699 29.8901 24.8602 29.8901 23.7401V9.73509C29.8901 6.3391 28.1361 4.1947 23.9427 4.1947ZM24.531 20.1801C24.531 20.2272 24.524 20.2722 24.517 20.3156C24.5083 20.3564 24.4967 20.3965 24.4822 20.4356C24.3673 20.7586 24.0436 20.9928 23.6591 20.9928H22.1193C21.6393 20.9928 21.2475 20.628 21.2475 20.1801V19.4838C21.2475 19.4752 21.2458 19.4666 21.2458 19.4576L21.2475 17.6051V17.0253L21.2492 17.02C21.2508 16.5738 21.6389 16.2127 22.119 16.2127H23.6588C24.1409 16.2127 24.5306 16.5754 24.5306 17.0253V20.1801H24.531Z" fill="#233266"/>
</svg>
