<svg width="40" height="40" viewBox="0 0 40 40" fill="none" xmlns="http://www.w3.org/2000/svg">
<path d="M36.7091 12.4741C36.8559 12.3275 36.9384 12.1286 36.9384 11.9212C36.9384 11.7137 36.8559 11.5148 36.7091 11.3683L32.5485 7.21508C32.2435 6.9107 31.7496 6.9107 31.4446 7.21508L29.3055 9.35039C27.3934 8.07086 25.2464 7.20586 22.977 6.80203C23.6474 6.07906 24.0578 5.11227 24.0578 4.05148C24.0578 1.8175 22.2377 0 20.0005 0C17.7632 0 15.9431 1.8175 15.9431 4.05148C15.9431 5.11219 16.3534 6.07906 17.024 6.80203C14.7545 7.20586 12.6075 8.07086 10.6955 9.35039L8.55633 7.21508C8.25133 6.9107 7.75742 6.9107 7.45242 7.21508L3.2918 11.3683C3.145 11.5148 3.0625 11.7137 3.0625 11.9212C3.0625 12.1286 3.145 12.3275 3.2918 12.4741L5.57094 14.7492C4.05242 17.3018 3.24227 20.2239 3.24227 23.2702C3.24227 27.7391 4.98555 31.9405 8.15109 35.1005C11.3162 38.26 15.5245 40 20.0005 40C24.4765 40 28.6847 38.26 31.8498 35.1005C35.0153 31.9406 36.7586 27.7391 36.7586 23.2702C36.7586 20.2238 35.9484 17.3018 34.4299 14.7491L36.7091 12.4741ZM31.9966 8.87187L35.0513 11.9212L33.5502 13.4197C33.04 12.7234 32.4724 12.0616 31.8498 11.4401C31.4419 11.033 31.0166 10.6494 30.5758 10.2901L31.9966 8.87187ZM20.0005 1.5625C21.3761 1.5625 22.4953 2.67906 22.4953 4.05148C22.4953 5.1518 21.7759 6.08766 20.7817 6.41547V4.61C20.7817 4.17859 20.432 3.82875 20.0005 3.82875C19.569 3.82875 19.2192 4.17859 19.2192 4.61V6.41547C18.225 6.08766 17.5056 5.1518 17.5056 4.05148C17.5056 2.67906 18.6248 1.5625 20.0005 1.5625ZM4.94961 11.9212L8.00437 8.87187L9.42516 10.2901C8.9843 10.6494 8.55906 11.0329 8.15117 11.4401C7.52852 12.0616 6.96094 12.7235 6.45078 13.4197L4.94961 11.9212ZM20.0005 38.4375C11.6215 38.4375 4.80477 31.6335 4.80477 23.2702C4.80477 14.907 11.6215 8.10305 20.0005 8.10305C28.3794 8.10305 35.1962 14.907 35.1962 23.2703C35.1962 31.6336 28.3794 38.4375 20.0005 38.4375Z" fill="#22ADCF"/>
<path d="M19.9995 35.2005C26.6008 35.2005 31.9522 29.8587 31.9522 23.2692C31.9522 16.6797 26.6008 11.3379 19.9995 11.3379C13.3983 11.3379 8.04688 16.6797 8.04688 23.2692C8.04688 29.8587 13.3983 35.2005 19.9995 35.2005Z" fill="#BDE6F1"/>
<path d="M20 15.2977C19.5685 15.2977 19.2188 14.9479 19.2188 14.5165V14.25C19.2188 13.8185 19.5685 13.4688 20 13.4688C20.4315 13.4688 20.7812 13.8185 20.7812 14.25V14.5165C20.7812 14.948 20.4315 15.2977 20 15.2977Z" fill="#22ADCF"/>
<path d="M20 33.0692C19.5685 33.0692 19.2188 32.7194 19.2188 32.288V32.0215C19.2188 31.5901 19.5685 31.2402 20 31.2402C20.4315 31.2402 20.7812 31.5901 20.7812 32.0215V32.288C20.7812 32.7194 20.4315 33.0692 20 33.0692Z" fill="#22ADCF"/>
<path d="M29.0205 24.0508H28.7539C28.3224 24.0508 27.9727 23.7009 27.9727 23.2695C27.9727 22.8381 28.3224 22.4883 28.7539 22.4883H29.0205C29.452 22.4883 29.8017 22.8381 29.8017 23.2695C29.8017 23.701 29.452 24.0508 29.0205 24.0508Z" fill="#22ADCF"/>
<path d="M11.247 24.0508H10.9805C10.549 24.0508 10.1992 23.7009 10.1992 23.2695C10.1992 22.8381 10.549 22.4883 10.9805 22.4883H11.247C11.6785 22.4883 12.0283 22.8381 12.0283 23.2695C12.0283 23.701 11.6785 24.0508 11.247 24.0508Z" fill="#22ADCF"/>
<path d="M26.1894 17.8603C25.9895 17.8603 25.7895 17.784 25.637 17.6315C25.3319 17.3264 25.3319 16.8317 25.637 16.5266L25.8254 16.3381C26.1305 16.0331 26.6252 16.0331 26.9304 16.3381C27.2354 16.6432 27.2354 17.1379 26.9304 17.4431L26.7419 17.6315C26.5893 17.784 26.3893 17.8603 26.1894 17.8603Z" fill="#22ADCF"/>
<path d="M13.6211 30.4267C13.4212 30.4267 13.2212 30.3504 13.0687 30.1979C12.7636 29.8928 12.7636 29.3981 13.0687 29.093L13.2571 28.9045C13.5622 28.5995 14.0569 28.5995 14.362 28.9045C14.6671 29.2096 14.6671 29.7043 14.362 30.0094L14.1736 30.1979C14.021 30.3505 13.821 30.4267 13.6211 30.4267Z" fill="#22ADCF"/>
<path d="M26.3779 30.4267C26.1779 30.4267 25.9779 30.3504 25.8254 30.1979L25.637 30.0094C25.3319 29.7044 25.3319 29.2097 25.637 28.9045C25.9421 28.5995 26.4368 28.5995 26.7419 28.9045L26.9304 29.093C27.2354 29.398 27.2354 29.8927 26.9304 30.1979C26.7777 30.3505 26.5778 30.4267 26.3779 30.4267Z" fill="#22ADCF"/>
<path d="M13.8095 17.8603C13.6096 17.8603 13.4096 17.784 13.2571 17.6315L13.0687 17.4431C12.7636 17.138 12.7636 16.6433 13.0687 16.3381C13.3737 16.0331 13.8684 16.0331 14.1736 16.3381L14.362 16.5266C14.6671 16.8316 14.6671 17.3263 14.362 17.6315C14.2094 17.784 14.0094 17.8603 13.8095 17.8603Z" fill="#22ADCF"/>
<path d="M24.6736 22.3703H22.6988C22.438 21.5109 21.7588 20.8316 20.8993 20.5709V18.125C20.8993 17.6935 20.5495 17.3438 20.118 17.3438C19.6866 17.3438 19.3368 17.6935 19.3368 18.125V20.5709C18.2299 20.9066 17.4219 21.9366 17.4219 23.1516C17.4219 24.6382 18.6314 25.8477 20.118 25.8477C21.3331 25.8477 22.363 25.0398 22.6988 23.9328H24.6736C25.1051 23.9328 25.4548 23.583 25.4548 23.1516C25.4548 22.7202 25.1051 22.3703 24.6736 22.3703ZM20.118 24.2852C19.493 24.2852 18.9844 23.7766 18.9844 23.1516C18.9844 22.5265 19.4929 22.018 20.118 22.018C20.7431 22.018 21.2517 22.5265 21.2517 23.1516C21.2516 23.7766 20.7431 24.2852 20.118 24.2852Z" fill="#22ADCF"/>
</svg>
